<?xml version="1.0" encoding="UTF-8"?><svg xmlns="http://www.w3.org/2000/svg" viewBox="0 0 851.98 1023.15"><defs><style>.c{stroke-width:31px;}.c,.d,.e,.f{fill:#1d1d1b;stroke:#1d1d1b;stroke-miterlimit:10;}.d{font-family:Gruppo, Gruppo;font-size:295.37px;stroke-width:.5px;}.e{stroke-width:10px;}</style></defs><g id="a"/><g id="b"><path class="f" d="M78.51,261.31c1.81-1.47,3.8-2.76,5.87-3.88,3.02-1.64,6.3-3.11,9.75-4.4,1.21-.43,2.5-.86,3.8-1.29,4.14-1.21,8.54-2.24,13.12-2.93,1.21-.26,2.33-.43,3.54-.6,4.92-.6,9.92-1.04,15.19-1.21,1.12-.09,2.33-.09,3.45-.09,5.18-.17,10.44-.09,15.96,.17h.09c1.12,.09,2.33,.17,3.54,.26,5.09,.26,10.27,.69,15.62,1.29,1.21,.09,2.42,.17,3.62,.34,4.75,.52,9.66,1.12,14.5,1.73,1.21,.17,2.42,.34,3.62,.6,4.14,.52,8.28,1.21,12.51,1.9,1.21,.17,2.42,.35,3.71,.6,3.54,.52,7.08,1.12,10.61,1.73,1.21,.17,2.42,.43,3.62,.6,5.52,.95,11.04,1.98,16.57,2.93,46.6,8.2,86.81,15.36,106.05,4.66,.17-.09,.26-.17,.43-.35,1.9-1.04,3.71-2.42,5.44-4.14,.26-.34,.52-.6,.86-.86,.95-1.04,1.9-2.16,2.85-3.37s1.9-2.5,2.85-3.97c.69-.95,1.29-1.98,1.98-3.11,1.12-1.9,2.33-4.06,3.45-6.3,.52-1.04,1.04-2.07,1.55-3.11,1.29-2.67,2.59-5.61,3.8-8.54l1.29-3.11c1.29-3.37,2.67-6.99,4.06-10.7,.34-1.12,.78-2.16,1.12-3.28,1.47-4.14,2.93-8.46,4.4-12.94,.43-1.21,.78-2.33,1.12-3.54,1.55-4.83,3.11-9.84,4.75-14.93,.34-1.12,.69-2.33,1.12-3.54,.69-2.5,1.47-5,2.24-7.51,.95-3.19,1.99-6.39,2.93-9.58,.43-1.21,.78-2.5,1.12-3.71,8.8-27.96,18.21-56.52,29.94-79.04,13.55-26.15,30.29-44.44,52.55-44.7h.6c4.66,0,9.15,.78,13.37,2.16v-3.62c-4.23-1.29-8.72-1.98-13.37-1.98h-.6c-43.49,.52-66.27,63.68-85.25,124.6-.34,1.21-.69,2.42-1.12,3.62-1.12,3.71-2.33,7.51-3.45,11.22-.6,2.07-1.29,4.14-1.9,6.13-.34,1.21-.78,2.42-1.12,3.62-1.55,5.18-3.19,10.27-4.75,15.19-.43,1.21-.78,2.42-1.12,3.54-1.55,4.49-3.02,8.89-4.57,13.12-.34,1.12-.69,2.24-1.12,3.28-1.38,3.88-2.76,7.59-4.14,11.05-.43,1.12-.86,2.16-1.29,3.11-1.29,3.11-2.59,6.04-3.97,8.8-.52,1.12-1.04,2.24-1.55,3.28-1.21,2.33-2.5,4.57-3.71,6.56-.69,1.12-1.38,2.16-1.99,3.11-1.21,1.64-2.33,3.19-3.45,4.49-1.04,1.21-2.07,2.33-3.19,3.19-.95,.86-1.99,1.64-2.93,2.24-.34,.26-.6,.43-.95,.6-2.24,1.29-4.83,2.24-7.77,2.93-20.71,5.35-57.38-1.12-95.95-8.02-5.87-1.04-11.82-2.07-17.78-3.11-1.21-.26-2.42-.43-3.62-.6-3.62-.6-7.16-1.21-10.79-1.81-1.21-.17-2.5-.43-3.71-.6-4.23-.69-8.46-1.29-12.6-1.9-1.21-.17-2.42-.35-3.62-.43-4.92-.69-9.75-1.29-14.5-1.73-1.21-.17-2.42-.35-3.54-.43-5.26-.52-10.44-.95-15.53-1.21-1.21-.09-2.42-.17-3.54-.17-5.44-.26-10.7-.34-15.79-.17-1.21,0-2.33,0-3.45,.09-5.09,.17-10.01,.6-14.67,1.21-1.21,.17-2.42,.34-3.54,.52-4.14,.69-8.2,1.55-11.99,2.67-1.38,.26-2.76,.69-4.06,1.21-2.24,.69-4.4,1.47-6.47,2.42-2.33,1.04-4.66,2.16-6.73,3.37-8.46,4.83-15.45,11.48-20.36,20.36-22.78,40.9,28.91,96.13,75.68,145.14,.78,.78,1.47,1.55,2.24,2.33l.43,.43c3.28,3.45,6.56,6.9,9.75,10.35,.86,.86,1.73,1.73,2.59,2.67,2.85,3.11,5.78,6.21,8.54,9.23,.86,.95,1.73,1.9,2.42,2.76,2.59,2.76,5,5.44,7.33,8.11,.78,.86,1.55,1.81,2.24,2.67,2.16,2.5,4.14,4.83,5.95,7.25,.78,.95,1.55,1.9,2.24,2.76,1.64,2.16,3.19,4.23,4.66,6.21,.6,1.04,1.29,1.98,1.9,2.93,1.29,1.9,2.33,3.62,3.28,5.35,.69,1.12,1.29,2.16,1.73,3.19,.78,1.55,1.47,2.93,1.9,4.31,.6,1.47,1.04,2.85,1.29,4.14,.35,1.12,.52,2.16,.52,3.11,.17,.78,.17,1.55,.17,2.24-.09,1.81-.34,3.8-.95,5.78-4.75,17.95-28.22,43.23-54.88,72.05-5.44,5.87-11.13,11.99-16.74,18.21-.78,.86-1.64,1.81-2.5,2.76-3.02,3.28-5.95,6.64-8.97,10.01-.78,1.04-1.64,1.98-2.5,2.93-3.36,3.88-6.64,7.77-9.84,11.65-.78,.95-1.55,1.9-2.33,2.85-3.45,4.23-6.82,8.54-10.01,12.86-.78,1.04-1.55,2.07-2.24,3.02-3.28,4.49-6.39,8.97-9.23,13.46-.69,1.04-1.29,1.98-1.9,2.93-2.67,4.4-5.26,8.8-7.42,13.2-.6,1.04-1.12,2.07-1.55,3.11-1.98,3.97-3.71,7.85-5.09,11.82-.52,1.12-.86,2.33-1.29,3.54-1.04,3.02-1.81,6.04-2.5,9.06-.34,1.55-.69,3.11-.86,4.66-.26,1.38-.43,2.76-.52,4.06-.34,2.85-.52,5.69-.43,8.54,.26,8.8,2.42,17.34,6.99,25.54,25.71,45.91,96.99,37.71,161.45,25.71,1.29-.26,2.5-.43,3.71-.69,5.61-1.04,11.13-2.16,16.57-3.19,1.21-.26,2.33-.52,3.54-.69,.09,0,.26-.09,.35-.09,5.09-1.04,10.01-1.99,14.93-2.93,1.12-.17,2.33-.43,3.45-.69,4.66-.86,9.23-1.73,13.72-2.5,1.12-.17,2.33-.34,3.45-.52,4.23-.78,8.28-1.38,12.17-1.98,1.12-.09,2.24-.26,3.37-.43,3.62-.52,7.16-.86,10.53-1.12,1.21-.17,2.42-.26,3.54-.26,3.11-.26,6.13-.43,8.89-.43,1.29,0,2.5,0,3.62,.09,2.5,.09,4.92,.26,7.08,.52,1.38,.17,2.76,.43,3.97,.69,1.81,.34,3.37,.86,4.92,1.47,1.12,.34,2.16,.86,3.11,1.38,.86,.52,1.73,1.04,2.59,1.73,14.32,11.13,25.46,47.98,37.28,86.81,.6,1.98,1.21,4.06,1.9,6.04,.34,1.29,.69,2.5,1.04,3.71,1.29,4.14,2.59,8.37,3.88,12.51,.43,1.21,.78,2.5,1.21,3.71,1.47,4.75,3.02,9.58,4.66,14.32,.34,1.21,.78,2.42,1.12,3.62,1.9,5.26,3.71,10.53,5.61,15.7,.43,1.21,.95,2.33,1.38,3.54,2.07,5.44,4.23,10.79,6.47,15.88,.43,1.12,.95,2.24,1.47,3.36,2.33,5.26,4.75,10.27,7.33,15.01,.52,1.04,1.12,2.07,1.64,3.11,2.5,4.49,5.09,8.63,7.85,12.51,.6,.95,1.29,1.9,1.98,2.76,2.42,3.28,4.92,6.39,7.59,9.06,.95,1.04,1.9,1.98,2.85,2.76,1.55,1.55,3.19,2.93,4.83,4.23,1.81,1.47,3.8,2.85,5.78,3.97,7.08,4.23,14.76,6.56,23.21,6.64h.43c3.8,0,7.51-.43,11.05-1.38v-3.62c-3.54,1.04-7.25,1.55-11.05,1.55h-.43c-5.87-.09-11.39-1.29-16.57-3.62-1.98-.86-3.88-1.81-5.7-3.02-2.76-1.64-5.35-3.62-7.85-5.87-.95-.86-1.9-1.73-2.76-2.67-2.93-2.85-5.78-6.13-8.46-9.75-.69-.86-1.38-1.81-2.07-2.67-2.76-4.06-5.44-8.46-8.02-13.12-.6-1.04-1.21-2.07-1.73-3.19-2.59-4.83-5-9.92-7.33-15.27-.52-1.12-1.04-2.24-1.47-3.37-2.24-5.18-4.4-10.61-6.47-16.14-.52-1.21-.95-2.42-1.38-3.62-1.9-5.09-3.71-10.35-5.52-15.62-.35-1.21-.78-2.5-1.21-3.71-1.55-4.75-3.02-9.49-4.57-14.24-.35-1.21-.78-2.42-1.12-3.71-1.29-4.06-2.59-8.2-3.8-12.25-.35-1.21-.78-2.42-1.12-3.71-.43-1.47-.95-3.02-1.38-4.49-13.29-43.66-24.77-81.46-41.42-90.52-.78-.43-1.55-.78-2.42-1.21-1.64-.6-3.45-1.21-5.44-1.73-1.04-.17-2.16-.43-3.37-.6-1.21-.26-2.5-.43-3.8-.52-2.07-.26-4.31-.34-6.64-.34-.69-.09-1.47-.09-2.24-.09-.43,0-.95,0-1.38,.09-2.76-.09-5.61,.09-8.54,.34-1.12,0-2.24,.09-3.45,.26-3.28,.26-6.73,.6-10.27,1.04-1.12,.26-2.33,.34-3.45,.52-3.88,.52-7.85,1.21-11.91,1.9-1.12,.17-2.33,.34-3.45,.52-4.4,.78-8.89,1.64-13.46,2.5-1.12,.17-2.33,.43-3.54,.69-4.92,.86-9.92,1.9-15.01,2.85-.26,.09-.52,.09-.78,.17-.95,.17-1.81,.34-2.76,.52-5.35,1.04-10.87,2.16-16.4,3.19-1.21,.26-2.5,.43-3.71,.69-63.68,11.91-134.27,20.45-159.03-23.82-3.02-5.44-4.92-11.04-5.87-16.91-.43-2.59-.69-5.18-.69-7.85s.17-5.44,.43-8.11c.17-1.47,.43-3.02,.78-4.57,.6-3.54,1.47-7.08,2.67-10.61,.26-1.12,.69-2.24,1.12-3.37,1.47-4.14,3.28-8.37,5.35-12.6,.43-1.04,.95-2.07,1.47-3.11,2.33-4.4,4.92-8.89,7.77-13.46,.6-.95,1.21-1.98,1.9-3.02,2.93-4.49,6.13-9.06,9.41-13.55,.78-1.04,1.55-2.07,2.33-3.02,3.19-4.31,6.56-8.63,10.01-12.94,.86-.95,1.64-1.9,2.42-2.85,3.28-3.88,6.56-7.77,9.92-11.65,.86-.95,1.64-1.9,2.5-2.85,2.93-3.37,5.87-6.64,8.8-9.92,.86-.95,1.73-1.81,2.5-2.76,5.26-5.78,10.53-11.39,15.62-16.91,30.2-32.62,56.26-60.83,56.78-80.16,0-.6,0-1.21-.09-1.81-.09-1.98-.52-4.06-1.12-6.21v-.09c-.09-.26-.17-.52-.35-.78-.34-1.29-.86-2.59-1.47-3.97-.52-1.21-1.12-2.42-1.73-3.71-.52-.95-1.12-2.07-1.81-3.11-.86-1.64-1.9-3.28-3.02-5-.69-.95-1.29-1.9-2.07-2.93-1.29-1.9-2.76-3.88-4.4-5.95-.69-.86-1.38-1.81-2.16-2.76-1.81-2.24-3.71-4.57-5.78-6.99-.69-.86-1.47-1.73-2.24-2.67-2.24-2.59-4.66-5.26-7.08-8.02-.78-.86-1.64-1.73-2.42-2.67-2.76-2.93-5.61-5.95-8.46-9.06-.86-.86-1.73-1.81-2.59-2.67-3.11-3.36-6.39-6.73-9.66-10.18-.43-.52-.95-1.04-1.47-1.55-.34-.43-.78-.78-1.12-1.21-46.34-48.49-98.02-103.29-76.28-142.29,3.62-6.39,8.28-11.56,13.98-15.62Z"/><path class="f" d="M84.89,256.56c1.12-1.81,2.42-3.45,3.71-5,2.5-2.93,5.26-5.52,8.37-7.68,1.73-1.38,3.62-2.59,5.52-3.62,3.02-1.64,6.3-3.11,9.75-4.31,1.21-.43,2.5-.78,3.8-1.12,3.97-1.21,8.2-2.07,12.6-2.67,1.12-.09,2.24-.26,3.45-.43,4.66-.43,9.41-.69,14.41-.69,1.12,0,2.33,0,3.54,.09,4.75,0,9.75,.35,14.84,.78,1.12,.09,2.24,.17,3.45,.34,4.75,.43,9.66,1.04,14.58,1.81,1.21,.17,2.42,.34,3.62,.52,4.23,.69,8.54,1.38,12.86,2.24,1.21,.17,2.5,.43,3.71,.69,3.8,.69,7.51,1.47,11.3,2.24,1.21,.26,2.33,.52,3.54,.78,12.51,2.67,25.11,5.69,37.36,8.63,30.29,7.25,57.81,13.89,78.44,14.5,3.54,.17,6.82,.09,9.92-.26,5.69-.34,10.7-1.55,14.76-3.54,.69-.34,1.38-.78,2.07-1.21,1.73-1.04,3.45-2.42,5.09-4.06,.52-.43,.95-.86,1.38-1.38,.95-.95,1.9-2.07,2.85-3.19,1.12-1.38,2.24-2.85,3.28-4.4,.69-1.04,1.38-2.07,1.99-3.11,1.38-2.07,2.67-4.31,3.88-6.64,.69-1.04,1.21-2.07,1.64-3.11,1.55-2.76,3.02-5.78,4.49-8.8,.43-1.04,.86-2.07,1.38-3.11,1.55-3.54,3.19-7.16,4.75-11.04,.52-1.04,.95-2.16,1.38-3.28,1.73-4.14,3.45-8.54,5.09-13.03l1.29-3.37c1.9-4.83,3.8-9.92,5.7-15.01,.43-1.12,.86-2.33,1.29-3.45,.09-.34,.26-.6,.35-.95,20.88-55.66,44.27-118.04,80.77-128.74v-3.54c-38.74,10.27-62.47,73.86-83.79,130.64-.09,.17-.09,.26-.17,.43-.43,1.04-.78,2.07-1.21,3.11-1.9,5.18-3.8,10.27-5.7,15.19-.43,1.21-.86,2.33-1.29,3.45-1.81,4.57-3.54,8.97-5.26,13.2-.43,1.12-.95,2.24-1.38,3.36-1.64,3.88-3.28,7.68-4.83,11.3-.52,1.04-1.04,2.07-1.47,3.11-1.47,3.28-3.02,6.3-4.57,9.15-.52,1.04-1.04,2.16-1.64,3.11-1.38,2.5-2.76,4.83-4.14,6.99-.69,1.12-1.38,2.16-1.98,3.11-1.38,1.81-2.59,3.45-3.88,4.92-.95,1.12-1.9,2.07-2.93,3.02-1.04,.95-2.07,1.81-3.19,2.59-.95,.6-1.81,1.21-2.76,1.64-1.47,.69-3.02,1.29-4.75,1.81-.95,.26-1.98,.52-3.02,.69-2.07,.43-4.23,.69-6.64,.86-20.88,1.38-52.9-6.3-86.38-14.32-12.68-3.02-25.71-6.13-38.66-8.97-1.21-.17-2.33-.43-3.54-.69-3.8-.78-7.68-1.55-11.48-2.33-1.21-.17-2.42-.43-3.62-.69-4.4-.78-8.71-1.47-12.94-2.16-1.21-.17-2.42-.34-3.62-.52-4.92-.69-9.75-1.29-14.5-1.73-1.21-.17-2.33-.26-3.45-.35-5-.43-9.84-.69-14.58-.78h-3.54c-4.83,0-9.41,.26-13.89,.69-1.21,.09-2.42,.26-3.54,.43-4.06,.52-7.94,1.29-11.65,2.24-1.38,.35-2.67,.69-3.88,1.04-2.24,.78-4.4,1.55-6.47,2.42-2.24,.95-4.49,1.98-6.56,3.19l-.09,.09c-7.25,4.14-13.29,9.66-18.03,17-.09,.09-.09,.17-.17,.26-1.29,2.07-2.42,4.23-3.37,6.39-17.43,40.21,28.99,95.87,70.33,145.31l6.47,7.77c.78,.95,1.64,1.9,2.42,2.85,2.67,3.28,5.35,6.56,8.02,9.75,.69,.95,1.47,1.9,2.16,2.85,2.42,2.93,4.75,5.87,6.99,8.72,.69,.95,1.47,1.9,2.16,2.85,1.98,2.67,3.97,5.26,5.78,7.77,.6,.95,1.29,1.9,1.9,2.76,1.64,2.42,3.19,4.66,4.49,6.9,.69,1.04,1.29,1.98,1.9,2.93,1.21,1.99,2.33,3.97,3.28,5.87,.6,1.12,1.12,2.16,1.55,3.19,.78,1.64,1.47,3.28,1.98,4.83,.52,1.38,.95,2.67,1.21,3.88,.26,1.21,.52,2.33,.6,3.36,.17,1.38,.17,2.67,.09,3.88-.09,1.12-.26,2.24-.52,3.45-.17,.69-.43,1.47-.69,2.24v.09c-.6,1.81-1.38,3.71-2.42,5.7-8.46,16.74-30.63,38.31-55.57,62.47-10.18,9.92-20.97,20.36-31.32,31.15-.86,.86-1.73,1.81-2.59,2.67-3.28,3.45-6.47,6.82-9.66,10.27-.78,1.04-1.73,1.99-2.59,2.93-3.45,3.88-6.82,7.85-10.01,11.74-.86,.95-1.64,1.9-2.33,2.85-3.37,4.14-6.56,8.37-9.49,12.51-.69,.95-1.38,1.98-2.07,2.93-2.85,4.23-5.52,8.37-7.85,12.6-.69,1.04-1.21,2.07-1.73,3.11-2.16,3.88-3.97,7.77-5.52,11.56-.52,1.12-.95,2.24-1.29,3.36-1.21,3.19-2.24,6.39-2.93,9.49-.43,1.47-.69,2.93-.95,4.4-.26,1.47-.52,3.02-.6,4.49-.34,2.59-.52,5.18-.43,7.68,.17,7.68,1.81,15.27,5.35,22.52,.09,.09,.17,.17,.17,.26,1.21,2.33,2.5,4.57,3.97,6.64,28.3,41.68,103.81,32.79,167.92,23.64,1.29-.17,2.5-.35,3.71-.52,1.64-.26,3.28-.43,4.83-.69,3.54-.52,7.08-1.04,10.61-1.47,1.12-.17,2.33-.35,3.45-.52,4.83-.69,9.49-1.29,14.07-1.9,1.21-.17,2.33-.34,3.45-.43,4.31-.52,8.46-1.04,12.51-1.47,1.12-.09,2.33-.17,3.45-.26,3.8-.43,7.51-.69,11.04-.78,1.12-.17,2.24-.17,3.37-.17,3.28-.17,6.47-.17,9.41-.09,1.21,0,2.42,0,3.54,.17,2.67,.09,5.26,.34,7.59,.69,1.38,.17,2.67,.43,3.88,.78,1.98,.43,3.8,.95,5.44,1.55s3.11,1.38,4.4,2.16c.34,.17,.6,.43,.95,.69,1.9,1.38,3.8,3.28,5.44,5.61,1.12,1.38,2.16,2.93,3.02,4.57,10.01,16.65,17.52,47.2,25.46,79.21,2.33,9.32,4.66,18.9,7.16,28.39,.26,1.21,.6,2.5,.95,3.8,1.21,4.49,2.42,8.97,3.71,13.46,.34,1.29,.69,2.5,1.04,3.8,1.47,5,2.93,10.01,4.57,14.84,.34,1.21,.78,2.42,1.21,3.62,1.64,5.26,3.54,10.44,5.44,15.36,.43,1.21,.95,2.33,1.38,3.54,2.07,5.09,4.23,9.92,6.47,14.58,.52,1.12,1.04,2.16,1.64,3.19,2.24,4.4,4.66,8.54,7.25,12.43,.6,1.04,1.29,1.98,1.9,2.93,2.33,3.28,4.75,6.3,7.33,9.06,.86,1.04,1.81,1.98,2.76,2.85,1.55,1.55,3.19,2.93,4.83,4.23,1.73,1.47,3.62,2.67,5.52,3.88,6.21,3.71,13.03,5.95,20.62,6.47,.78,.09,1.55,.09,2.33,.09h.69c2.07,0,4.06-.17,5.95-.43,10.18-1.29,19.5-6.13,28.04-13.46v-4.57c-10.1,9.32-21.31,14.93-33.74,15.01-1.04,0-1.98,0-3.02-.09-1.29-.09-2.5-.17-3.71-.43-3.62-.52-7.08-1.55-10.35-3.11-1.98-.78-3.88-1.73-5.69-2.85-2.67-1.73-5.26-3.71-7.68-5.95-1.04-.86-1.98-1.81-2.85-2.76-2.85-2.93-5.52-6.21-8.11-9.75-.6-.95-1.29-1.9-1.9-2.85-2.67-3.97-5.09-8.28-7.42-12.94-.6-1.04-1.12-2.07-1.64-3.19-2.33-4.66-4.49-9.66-6.56-14.93v-.09c-.43-1.12-.86-2.24-1.38-3.45-1.9-5-3.71-10.18-5.35-15.53-.43-1.21-.86-2.42-1.21-3.62-1.55-4.83-3.02-9.84-4.49-14.84-.35-1.29-.78-2.59-1.04-3.88-1.29-4.49-2.5-8.89-3.62-13.38-.34-1.29-.69-2.5-1.04-3.8-2.33-8.89-4.49-17.69-6.64-26.4-7.51-30.37-14.32-57.9-23.13-75.33-1.12-2.16-2.16-4.14-3.28-5.95-3.11-4.92-6.39-8.63-10.01-10.87-1.12-.69-2.42-1.38-3.71-1.9-1.64-.78-3.37-1.29-5.26-1.81-1.29-.34-2.59-.69-3.97-.86-1.29-.26-2.5-.52-3.88-.6-2.24-.34-4.57-.52-6.99-.6-1.21-.09-2.42-.09-3.62-.09-.86-.09-1.81-.09-2.67-.09-1.98,0-4.06,0-6.21,.17-1.12,0-2.24,0-3.45,.17-3.45,.09-6.99,.34-10.7,.69-1.12,.09-2.33,.17-3.45,.35-3.97,.34-8.11,.78-12.34,1.29-1.12,.17-2.24,.26-3.45,.43-4.49,.6-9.06,1.21-13.81,1.81-1.12,.17-2.33,.35-3.54,.52-3.71,.52-7.51,1.12-11.39,1.64-1.21,.17-2.5,.35-3.8,.52-1.21,.17-2.42,.35-3.62,.52-66.36,9.49-145.4,19.07-169.3-27.87-.09-.09-.09-.26-.17-.34-1.21-2.42-2.16-4.83-2.85-7.25-.86-2.33-1.38-4.75-1.73-7.16-.43-2.5-.6-5-.6-7.51-.09-2.67,.17-5.35,.6-8.11,.09-1.47,.35-2.93,.69-4.4,.69-3.54,1.73-7.08,3.02-10.7,.35-1.12,.78-2.33,1.29-3.45,1.55-4.06,3.54-8.11,5.78-12.25,.52-1.04,1.12-1.98,1.64-3.02,2.5-4.31,5.26-8.63,8.28-12.86,.6-1.04,1.29-1.98,2.07-2.93,2.93-4.23,6.21-8.46,9.58-12.68,.86-.95,1.64-1.9,2.42-2.85,3.28-3.97,6.64-7.85,10.1-11.65,.86-.95,1.73-1.9,2.59-2.85,3.11-3.45,6.3-6.9,9.58-10.27,.86-.86,1.73-1.81,2.59-2.67,10.01-10.27,20.28-20.28,30.11-29.86,22-21.4,41.85-40.73,52.38-56.95,1.73-2.59,3.11-5.09,4.31-7.51,1.98-4.23,3.28-8.11,3.54-11.74,.09-1.04,.09-2.16,0-3.37-.09-1.98-.52-3.97-1.12-6.13-.09-.43-.17-.78-.43-1.21-.26-1.29-.78-2.59-1.38-3.97-.43-1.29-1.04-2.67-1.73-4.06-.52-1.04-1.04-2.16-1.64-3.28-.95-1.73-1.99-3.54-3.02-5.44-.6-.95-1.21-1.9-1.9-2.93-1.29-2.16-2.76-4.31-4.31-6.56-.69-.86-1.29-1.81-1.98-2.76-1.73-2.5-3.62-5-5.61-7.59-.69-.95-1.38-1.81-2.16-2.76-2.07-2.76-4.4-5.69-6.73-8.54-.69-.95-1.47-1.81-2.24-2.76-2.5-3.11-5.18-6.39-7.77-9.66-.86-.95-1.64-1.9-2.42-2.85-2.5-2.85-4.92-5.87-7.42-8.8-42.45-50.91-90.69-108.55-67.05-146.95,.17-.26,.34-.6,.52-.86Z"/><path class="f" d="M99.13,247.93c.78-2.67,1.99-5.18,3.37-7.68,.86-1.38,1.73-2.76,2.76-4.06,.43-.6,.95-1.21,1.47-1.81,2.5-3.11,5.35-5.78,8.46-8.11,1.73-1.29,3.62-2.5,5.61-3.54,2.93-1.64,6.04-3.02,9.32-4.06,1.21-.43,2.5-.86,3.8-1.12,3.8-1.12,7.77-1.81,11.91-2.33,1.12-.09,2.33-.26,3.45-.35,4.31-.34,8.8-.43,13.46-.26,1.12,0,2.24,.09,3.37,.17,4.49,.17,9.15,.6,13.89,1.21,1.21,.09,2.33,.26,3.54,.43,4.23,.6,8.54,1.38,12.94,2.16,1.21,.26,2.5,.52,3.71,.69,3.88,.86,7.77,1.73,11.65,2.67,1.21,.26,2.42,.52,3.62,.86,19.16,4.57,38.92,10.7,57.99,16.48,27.35,8.46,52.38,16.14,71.97,18.55,1.55,.26,3.11,.43,4.57,.52,.69,.09,1.47,.09,2.16,.17,2.93,.17,5.7,.26,8.37,.09,5-.26,9.41-1.12,13.12-2.67,1.29-.52,2.5-1.21,3.8-2.07,1.64-1.04,3.19-2.33,4.83-3.88,.6-.43,1.21-1.04,1.81-1.73,.95-.95,1.9-1.98,2.76-3.02,1.29-1.55,2.59-3.11,3.8-4.83,.69-.95,1.38-1.9,2.07-2.93,1.55-2.24,3.02-4.57,4.57-7.08,.52-.95,1.12-1.9,1.73-2.93,1.64-2.85,3.28-5.95,4.92-9.15,.6-1.04,1.12-2.07,1.64-3.11,1.81-3.54,3.62-7.16,5.44-11.05,.52-1.04,1.04-2.16,1.47-3.19,1.99-4.23,3.97-8.54,5.95-12.94,.52-1.12,1.04-2.16,1.55-3.28,1.99-4.49,4.06-9.06,6.13-13.72,17.78-39.95,37.1-83.44,61.01-106.74v-4.57c-25.54,23.3-45.73,68.43-64.2,109.93-1.9,4.23-3.71,8.46-5.61,12.6-.52,1.12-.95,2.16-1.47,3.28-2.07,4.49-4.06,8.97-6.13,13.29-.43,1.04-.95,2.16-1.47,3.19-1.9,3.97-3.71,7.77-5.61,11.39-.52,1.04-1.04,1.98-1.55,3.02-1.73,3.28-3.45,6.39-5.18,9.41v.09c-.6,1.04-1.21,1.98-1.73,2.93-1.55,2.59-3.19,5.09-4.75,7.33-.69,1.04-1.47,2.07-2.07,3.02-1.55,1.9-2.93,3.71-4.4,5.26-.95,1.04-1.9,2.07-2.85,2.93-1.29,1.12-2.5,2.16-3.71,3.02-1.38,.95-2.76,1.73-4.14,2.33-.69,.26-1.38,.52-2.07,.78-1.38,.43-2.93,.78-4.57,1.04-1.81,.34-3.8,.52-5.95,.52-2.07,.17-4.4,.09-6.82-.09-1.38-.09-2.76-.17-4.23-.35-19.93-1.98-46.51-10.18-74.12-18.64-19.5-5.95-39.78-12.17-59.54-16.91-1.12-.26-2.33-.6-3.54-.86-3.88-.86-7.85-1.73-11.74-2.5-1.21-.26-2.42-.52-3.62-.69-4.4-.86-8.72-1.55-12.94-2.07-1.21-.26-2.33-.43-3.45-.52-4.75-.6-9.32-1.04-13.81-1.21-1.12-.09-2.33-.09-3.37-.09-4.4-.17-8.72-.09-12.94,.26-1.21,.09-2.33,.17-3.54,.34-3.8,.43-7.42,1.04-10.96,1.9-1.38,.26-2.67,.69-3.97,1.12-2.24,.6-4.31,1.38-6.39,2.24-2.24,.95-4.4,1.99-6.39,3.19-6.13,3.45-11.39,8.02-15.79,13.98-.78,1.12-1.55,2.24-2.33,3.37l-.09,.09c-1.21,1.98-2.24,4.06-3.11,6.21-.78,1.73-1.38,3.45-1.9,5.26-.35,1.29-.69,2.59-.95,3.88-7.77,38.74,30.03,90.78,64.03,137.55,4.49,6.21,8.97,12.34,13.29,18.29,.69,1.04,1.38,1.98,2.07,2.93,2.16,3.11,4.31,6.21,6.3,9.23,.69,.95,1.38,1.9,1.98,2.85,1.9,2.85,3.71,5.52,5.35,8.28,.69,.95,1.29,1.9,1.9,2.93,1.55,2.5,2.93,4.92,4.31,7.33,.6,1.04,1.12,2.07,1.64,3.02,1.21,2.16,2.24,4.23,3.11,6.21,.6,1.12,1.04,2.24,1.55,3.37,.69,1.81,1.38,3.54,1.9,5.18,.43,1.38,.78,2.67,1.12,3.97,.26,1.38,.52,2.67,.6,3.88,.17,1.81,.17,3.54,0,5.09-.09,.52-.17,1.04-.34,1.64,0,0,0,.09-.09,.09-.09,.86-.34,1.73-.69,2.67-.52,1.73-1.38,3.45-2.42,5.35-.78,1.55-1.81,3.19-2.93,4.83-.69,1.04-1.47,2.16-2.42,3.28-11.3,15.19-32.1,33.31-53.67,52.12-16.05,13.98-32.7,28.48-47.55,43.32-.95,.86-1.81,1.73-2.67,2.59-3.45,3.54-6.73,6.99-9.92,10.53-.86,.95-1.73,1.81-2.5,2.76-3.45,3.88-6.73,7.68-9.75,11.56-.78,.95-1.47,1.9-2.16,2.76-3.02,3.97-5.78,7.94-8.2,11.91-.69,.95-1.29,1.99-1.9,3.02-2.24,3.71-4.23,7.51-5.95,11.22-.43,1.12-.95,2.24-1.38,3.28-1.21,3.19-2.33,6.3-3.11,9.41-.34,1.47-.69,2.85-.95,4.23-.34,1.55-.52,3.11-.69,4.57-.34,2.59-.52,5.26-.34,7.85,.09,6.64,1.47,13.38,4.4,19.93,.34,.86,.78,1.64,1.21,2.42,1.12,2.42,2.42,4.66,4.06,6.82,.6,1.12,1.38,2.16,2.24,3.11,.95,1.29,1.9,2.42,2.93,3.54,31.24,33.14,101.65,26.75,164.73,21.05,2.24-.17,4.57-.43,6.82-.6,1.21-.09,2.42-.17,3.62-.26,4.83-.43,9.58-.86,14.15-1.29,1.21,0,2.33-.17,3.54-.26,4.4-.26,8.63-.6,12.77-.78,1.21-.09,2.33-.17,3.45-.17,3.97-.26,7.68-.34,11.3-.43h3.54c3.37,0,6.56,.09,9.58,.26,1.29,.09,2.5,.17,3.62,.26,2.85,.26,5.52,.6,7.94,1.12,1.38,.17,2.59,.43,3.8,.78,2.16,.52,4.14,1.12,5.95,1.9,1.9,.69,3.62,1.55,5.09,2.59,.17,.09,.34,.26,.52,.35,1.9,1.38,3.71,3.28,5.35,5.61,.95,1.29,1.9,2.76,2.76,4.4,1.29,2.16,2.42,4.66,3.62,7.33,.43,1.12,.86,2.33,1.29,3.54,6.73,17.86,11.74,43.84,16.83,70.76,3.28,17.09,6.64,34.77,10.7,51.77,.26,1.29,.6,2.59,.86,3.88,1.21,4.75,2.42,9.49,3.71,14.07,.26,1.21,.69,2.5,1.04,3.71,1.47,5.09,2.93,10.01,4.57,14.76,.43,1.12,.86,2.33,1.29,3.45,1.73,4.92,3.62,9.66,5.7,14.15,.43,1.12,.95,2.16,1.47,3.19,2.07,4.31,4.31,8.46,6.64,12.25,.6,1.04,1.29,1.98,1.9,2.93,2.16,3.28,4.49,6.3,6.99,8.97,.86,1.04,1.73,1.98,2.67,2.85,1.47,1.55,3.11,2.93,4.75,4.23,1.81,1.47,3.8,2.85,5.78,3.97,5.35,3.19,11.22,5.26,17.69,6.04,1.64,.26,3.28,.34,4.92,.34h.52c2.16,0,4.23-.17,6.3-.52,1.9-.17,3.71-.6,5.52-1.12,1.21-.26,2.5-.69,3.71-1.12,15.45-5.61,29.17-19.24,41.59-37.19v-5.87c-13.29,20.02-27.87,35.21-44.35,40.38-1.21,.43-2.5,.78-3.8,1.04-2.76,.69-5.52,1.04-8.37,1.04-1.9,0-3.71-.09-5.61-.35-.34,0-.69-.09-1.04-.17-3.71-.52-7.25-1.47-10.53-3.02-1.99-.78-3.88-1.81-5.7-2.93-2.76-1.64-5.26-3.62-7.68-5.95-1.04-.86-1.98-1.81-2.76-2.76-2.85-2.85-5.35-6.04-7.68-9.58-.69-.95-1.29-1.9-1.9-2.93-2.5-3.88-4.75-8.11-6.82-12.68-.6-1.04-1.04-2.07-1.55-3.19-1.99-4.57-3.88-9.32-5.7-14.41-.43-1.12-.78-2.33-1.21-3.54-1.64-4.75-3.11-9.75-4.57-14.84-.34-1.21-.69-2.42-1.04-3.71-1.21-4.57-2.42-9.32-3.54-14.15-.34-1.21-.6-2.5-.86-3.8-3.88-16.39-7.08-33.39-10.27-49.88-5.18-26.92-9.84-51.6-16.22-69.38-.43-1.29-.95-2.5-1.47-3.71-.6-1.73-1.29-3.45-2.07-5-.86-1.99-1.81-3.8-2.85-5.44-2.59-4.49-5.44-7.94-8.63-10.27-1.47-1.12-3.19-2.07-5.09-2.76-1.64-.86-3.45-1.47-5.35-1.98-1.38-.43-2.76-.78-4.23-1.04-1.21-.26-2.5-.52-3.8-.69-2.33-.43-4.83-.69-7.42-.86-1.12-.09-2.33-.17-3.54-.26-2.93-.17-6.04-.26-9.32-.26h-3.45c-3.54,.09-7.25,.17-11.04,.35-1.12,.09-2.24,.09-3.45,.17-4.06,.26-8.2,.52-12.51,.86-1.12,.09-2.33,.17-3.54,.26-4.57,.35-9.23,.78-13.98,1.21-1.21,.09-2.42,.17-3.54,.26-2.59,.26-5.09,.43-7.68,.69-60.49,5.52-134.27,12.17-163.69-22.18-1.12-1.12-2.07-2.33-2.85-3.62-1.47-1.9-2.67-3.88-3.71-5.95-.6-1.04-1.12-2.07-1.55-3.11-.6-1.29-1.04-2.59-1.47-3.88-.95-2.59-1.55-5.18-1.98-7.85-.43-2.5-.6-5-.6-7.51v-.09c0-2.76,.26-5.52,.69-8.28,.17-1.38,.43-2.85,.78-4.23,.78-3.45,1.9-6.99,3.37-10.53,.34-1.12,.86-2.16,1.38-3.28,1.64-3.97,3.8-7.94,6.21-11.91,.52-1.04,1.12-1.99,1.81-2.93,2.5-4.06,5.35-8.11,8.46-12.17,.69-.95,1.38-1.9,2.16-2.85,3.11-3.88,6.3-7.77,9.75-11.56,.86-.95,1.73-1.9,2.59-2.85,3.19-3.45,6.47-6.9,9.92-10.35,.86-.95,1.81-1.81,2.67-2.76,14.76-14.58,30.98-28.73,46.08-41.94,21.49-18.72,41.07-35.72,52.72-50.57,.95-1.21,1.81-2.33,2.59-3.45,.43-.52,.78-1.04,1.04-1.47,1.55-2.24,2.93-4.49,3.97-6.56,1.81-3.54,3.02-6.9,3.45-10.1,.17-1.55,.26-3.11,0-4.83,0-1.99-.35-3.97-.95-6.13-.09-.52-.17-1.04-.43-1.55-.26-1.29-.69-2.59-1.21-3.97-.52-1.47-1.12-2.93-1.73-4.49-.52-1.12-1.04-2.24-1.55-3.36-.95-1.9-1.9-3.88-3.02-5.87-.52-.95-1.04-1.99-1.64-2.93-1.21-2.33-2.67-4.66-4.06-7.08-.69-.95-1.29-1.98-1.9-2.93-1.64-2.67-3.36-5.26-5.26-8.03-.6-.95-1.21-1.9-1.9-2.85-1.99-2.93-4.06-5.95-6.21-8.97-.69-.95-1.38-1.9-2.07-2.93-4.4-6.21-9.06-12.6-13.81-19.16-34.17-46.94-72.31-99.32-63.08-136.77,.35-1.29,.69-2.59,1.21-3.8Z"/><path class="f" d="M116.04,234.82c.34-1.29,.69-2.59,1.04-3.88,.95-2.85,2.16-5.52,3.71-8.2,1.12-1.99,2.42-3.88,3.88-5.7,.26-.43,.6-.78,.95-1.21,2.33-2.76,4.83-5.09,7.59-7.16,1.81-1.38,3.62-2.59,5.61-3.62,2.76-1.55,5.61-2.85,8.71-3.8,1.21-.52,2.5-.86,3.8-1.12v-.09c3.54-.95,7.33-1.64,11.22-2.07,1.12-.09,2.24-.17,3.36-.17,4.06-.34,8.28-.34,12.68-.09,1.12,.09,2.24,.17,3.45,.26,4.06,.26,8.11,.78,12.34,1.47,1.21,.17,2.42,.43,3.62,.6,3.8,.69,7.68,1.47,11.65,2.42,1.21,.26,2.33,.52,3.54,.78,25.37,6.21,52.64,16.57,78.44,26.32,22.26,8.37,42.97,16.22,60.4,20.62,1.21,.34,2.42,.6,3.62,.86,2.42,.6,4.83,1.12,7.16,1.47,1.38,.26,2.76,.52,4.14,.69,1.04,.09,2.16,.26,3.19,.35,2.5,.26,4.92,.43,7.25,.34,4.23-.09,8.02-.6,11.39-1.81,1.73-.6,3.54-1.55,5.26-2.67,1.64-1.04,3.28-2.33,5-3.8,.69-.6,1.38-1.29,2.16-2.16,.95-.86,1.98-1.81,2.85-2.93,1.47-1.55,2.85-3.19,4.23-5,.78-.86,1.47-1.81,2.16-2.85,1.73-2.24,3.37-4.66,5.09-7.25,.6-.95,1.21-1.81,1.9-2.85,1.81-2.93,3.71-5.95,5.61-9.23,.6-1.04,1.12-1.98,1.73-3.02,2.07-3.54,4.06-7.16,6.13-10.96,.6-1.04,1.12-2.07,1.64-3.11,4.31-7.85,8.72-16.22,13.2-24.94,12.94-24.85,26.58-51.08,41.33-72.4v-5.78c-16.05,22.18-30.63,50.22-44.44,76.63-4.31,8.28-8.54,16.4-12.77,24.16-.52,1.04-1.12,2.07-1.64,3.11-2.16,3.88-4.23,7.59-6.3,11.22-.6,1.04-1.12,2.07-1.73,3.02-1.98,3.28-3.88,6.47-5.78,9.49-.69,1.04-1.29,1.99-1.9,2.93-1.81,2.67-3.62,5.26-5.44,7.59-.69,1.04-1.38,1.98-2.16,2.85-1.55,1.98-3.19,3.88-4.83,5.52-.86,1.04-1.81,1.99-2.76,2.85-1.38,1.21-2.76,2.33-4.14,3.28-1.9,1.38-3.8,2.33-5.61,3.02q-.09,0-.17,.09c-1.55,.52-3.28,.95-5.18,1.12-1.81,.34-3.8,.43-5.87,.43s-4.23-.17-6.56-.43c-1.29-.09-2.67-.26-4.06-.52-2.59-.34-5.26-.86-8.11-1.55-1.21-.26-2.42-.52-3.62-.86-17.69-4.31-39.09-12.43-61.18-20.8-26.32-9.92-54.1-20.45-79.99-26.66-1.12-.26-2.24-.52-3.36-.78-3.97-.95-7.85-1.73-11.74-2.33-1.21-.26-2.42-.43-3.62-.6-4.14-.69-8.2-1.12-12.17-1.38-1.21-.17-2.33-.17-3.45-.26-4.23-.26-8.28-.26-12.25,0-1.21,.09-2.33,.17-3.45,.26-3.54,.34-6.99,.86-10.27,1.73-1.38,.26-2.67,.6-3.97,1.04-2.07,.6-4.14,1.29-6.04,2.16-2.16,.86-4.23,1.9-6.21,3.11-5,2.85-9.41,6.56-13.37,11.13-1.81,2.07-3.37,4.31-4.66,6.56-1.21,1.99-2.24,3.97-3.11,6.04-.86,1.9-1.47,3.71-1.98,5.7-.43,1.29-.78,2.59-.95,3.97-.69,3.02-1.04,6.13-1.12,9.32-.09,1.12-.09,2.33-.09,3.54,.52,36.85,29.86,83.36,56.43,125.81,6.21,9.92,12.43,19.67,17.95,28.99,.6,1.04,1.21,2.07,1.81,3.02,1.64,2.93,3.28,5.87,4.83,8.63,.6,1.12,1.21,2.07,1.73,3.11,1.38,2.67,2.76,5.26,3.97,7.77l1.55,3.11c1.04,2.33,1.99,4.49,2.93,6.64,.43,1.12,.86,2.33,1.21,3.37,.78,1.99,1.38,3.88,1.9,5.61,.43,1.38,.69,2.76,.95,4.06,.34,1.47,.52,2.93,.6,4.23,.26,2.24,.17,4.23-.17,6.13v.17c-.17,1.04-.52,2.16-.95,3.19-.6,1.81-1.47,3.62-2.5,5.44-.86,1.38-1.81,2.85-2.93,4.31-.69,1.04-1.55,2.16-2.42,3.28-1.38,1.73-2.93,3.45-4.66,5.26-.69,.86-1.55,1.73-2.5,2.59-12.43,12.77-30.98,27.18-50.05,42.02-22.26,17.34-45.82,35.64-64.72,54.54-.86,.86-1.73,1.73-2.59,2.67-3.37,3.45-6.56,6.9-9.58,10.35-.78,.95-1.55,1.81-2.33,2.76-3.11,3.71-5.87,7.42-8.46,11.13-.69,.95-1.29,1.9-1.9,2.85-2.33,3.62-4.49,7.33-6.21,10.96-.52,1.04-1.04,2.07-1.47,3.11-1.38,3.11-2.5,6.3-3.36,9.41-.43,1.38-.78,2.76-1.04,4.14-.35,1.55-.6,3.11-.78,4.66-.34,2.59-.52,5.18-.34,7.85,.09,5.61,1.12,11.22,3.28,16.83,.69,1.81,1.47,3.62,2.42,5.35,1.12,2.42,2.5,4.66,4.06,6.82,.78,1.12,1.64,2.24,2.59,3.37,.95,1.12,1.98,2.24,3.02,3.36,1.73,1.73,3.62,3.37,5.61,5,.95,.69,1.98,1.47,3.02,2.07,33.14,23.04,94.14,20.8,149.28,18.81,7.33-.26,14.5-.52,21.57-.69,1.21,0,2.33-.09,3.54-.09,4.4-.09,8.8-.17,12.94-.17h3.45c3.97,0,7.77,.09,11.48,.26,1.21,0,2.33,0,3.54,.09,3.54,.17,6.9,.43,10.1,.78,1.21,.09,2.33,.17,3.45,.26,2.93,.43,5.7,.86,8.2,1.38,1.38,.26,2.67,.6,3.88,.95,2.24,.52,4.31,1.21,6.21,1.98,1.81,.78,3.45,1.55,4.83,2.5,.69,.43,1.29,.86,1.9,1.38,1.47,1.21,2.85,2.76,4.14,4.66,1.04,1.38,1.99,2.93,2.85,4.66,1.12,2.16,2.16,4.49,3.11,7.08,.43,1.12,.86,2.33,1.29,3.54,.95,2.93,1.81,6.04,2.67,9.32,.34,1.04,.6,2.16,.86,3.28,4.06,17.09,6.99,38.57,10.01,60.75,3.45,25.37,7.08,52.03,12.77,75.94,.26,1.29,.6,2.59,.86,3.8,1.21,4.83,2.5,9.41,3.8,13.89,.43,1.21,.78,2.42,1.12,3.54,1.55,4.75,3.28,9.32,5,13.55,.52,1.12,.95,2.16,1.38,3.19,1.9,4.23,3.97,8.11,6.13,11.82,.6,1.04,1.21,1.99,1.81,2.93,2.07,3.19,4.23,6.13,6.64,8.8,.86,1.04,1.73,1.99,2.67,2.93,1.55,1.55,3.11,3.02,4.83,4.31,1.73,1.38,3.62,2.67,5.61,3.8,4.57,2.76,9.58,4.66,15.1,5.61,2.67,.43,5.26,.69,7.85,.69,2.24,0,4.4-.17,6.56-.52,1.9-.26,3.8-.69,5.69-1.21,1.29-.34,2.59-.78,3.8-1.21,2.85-1.12,5.69-2.42,8.46-4.14,.95-.43,1.99-1.04,2.93-1.73,19.42-12.43,36.85-36.67,52.81-64.2v-6.64c-16.74,29.25-34.86,55.48-54.88,68.17-.95,.6-1.9,1.12-2.85,1.64-3.02,1.81-6.13,3.19-9.32,4.14-1.21,.52-2.5,.86-3.71,1.12-2.85,.69-5.69,1.04-8.63,1.12-2.24,0-4.4-.09-6.64-.52-.52,0-.95-.09-1.47-.17-3.19-.6-6.21-1.47-9.06-2.76-1.98-.78-3.97-1.73-5.78-2.93-2.67-1.64-5.18-3.54-7.59-5.78-.95-.86-1.9-1.81-2.76-2.76-2.59-2.85-5-5.95-7.25-9.41-.6-.95-1.29-1.9-1.81-2.93-2.33-3.71-4.4-7.85-6.3-12.17-.52-1.12-.95-2.24-1.47-3.37-1.73-4.31-3.37-8.97-4.92-13.72-.34-1.12-.69-2.33-1.12-3.54-1.29-4.49-2.59-9.15-3.8-13.98-.26-1.29-.52-2.5-.86-3.8-5.35-23.3-8.89-49.27-12.17-73.95-3.02-22.52-5.87-43.4-9.84-60.23-.26-1.12-.52-2.24-.86-3.37-.78-3.02-1.55-5.87-2.42-8.54-.35-1.29-.78-2.5-1.29-3.71-.6-1.81-1.21-3.45-1.9-5.09-.86-1.9-1.73-3.71-2.59-5.26-2.16-3.97-4.49-7.08-7.25-9.32-1.9-1.55-4.14-2.85-6.64-4.06h-.09c-1.55-.69-3.19-1.29-5-1.81-1.38-.43-2.93-.86-4.49-1.29-1.21-.26-2.5-.52-3.88-.78-2.42-.43-4.92-.78-7.59-1.12-1.12-.17-2.33-.26-3.54-.43-3.11-.26-6.3-.52-9.66-.6-1.12-.09-2.24-.09-3.45-.17-3.62-.09-7.33-.17-11.22-.17h-3.45c-4.06,0-8.37,.09-12.68,.26-1.12,0-2.33,0-3.54,.09-7.16,.17-14.58,.43-22.18,.69-55.14,1.98-116.06,4.23-148.07-18.73-1.04-.78-1.98-1.47-2.85-2.24-2.24-1.81-4.31-3.71-6.21-5.87-.95-1.04-1.9-2.24-2.76-3.36-1.55-2.07-2.93-4.14-4.14-6.47v-.09c-1.04-1.81-1.9-3.8-2.67-5.78-.17-.43-.35-.86-.43-1.29-.95-2.59-1.64-5.26-1.98-7.85-.52-2.5-.69-4.92-.69-7.42,0-2.85,.26-5.69,.69-8.54,.26-1.38,.52-2.67,.86-4.06,.78-3.45,1.98-6.99,3.54-10.44,.43-1.04,.86-2.16,1.38-3.19,1.81-3.8,3.97-7.59,6.47-11.39,.6-.95,1.29-1.9,1.99-2.85,2.59-3.8,5.52-7.59,8.54-11.3,.86-.95,1.64-1.81,2.42-2.76,3.02-3.45,6.3-6.9,9.75-10.35,.78-.86,1.73-1.81,2.59-2.67,18.55-18.38,41.51-36.24,63.34-53.15,19.33-15.1,37.19-28.99,49.62-41.59,.95-.86,1.81-1.81,2.59-2.67,1.47-1.55,2.85-3.02,4.06-4.49,.95-1.12,1.81-2.16,2.59-3.19,.43-.52,.78-.95,1.12-1.47,.09,0,.09-.09,.09-.09,1.55-2.07,2.85-4.06,3.8-6.04,1.73-3.02,2.85-5.87,3.36-8.63,.35-1.99,.43-4.06,.35-6.3-.09-1.98-.35-4.06-.86-6.21-.09-.6-.26-1.12-.43-1.73-.26-1.29-.6-2.67-1.12-4.06-.43-1.55-1.04-3.19-1.73-4.83-.35-1.12-.78-2.24-1.29-3.45-.86-1.99-1.73-4.06-2.76-6.21-.52-1.04-1.04-2.07-1.55-3.19-1.21-2.42-2.42-4.83-3.8-7.33-.52-1.04-1.12-2.07-1.73-3.11-1.47-2.76-3.11-5.52-4.66-8.37-.69-.95-1.21-1.98-1.81-3.02-5.52-9.32-11.82-19.24-18.29-29.6-26.58-42.2-55.66-88.53-55.83-124.52,0-1.12,0-2.33,.09-3.45,.17-3.45,.6-6.73,1.38-9.92Z"/><path class="f" d="M133.9,217.56c.26-1.38,.6-2.67,1.12-3.88,.95-3.02,2.16-5.87,3.8-8.63,1.04-1.9,2.33-3.8,3.71-5.61,1.04-1.29,2.16-2.59,3.37-3.88,1.55-1.64,3.19-3.11,4.83-4.4,1.81-1.47,3.8-2.76,5.78-3.88,2.59-1.47,5.35-2.76,8.2-3.71,1.21-.52,2.59-.86,3.88-1.21,3.37-.95,6.9-1.55,10.61-1.9,1.12-.17,2.33-.26,3.54-.34,1.47-.09,2.93-.09,4.4-.09,2.16,0,4.4,.09,6.73,.26,1.12,.09,2.33,.17,3.54,.35,3.62,.26,7.33,.86,11.22,1.55,1.12,.17,2.24,.43,3.45,.69,30.55,6.21,65.32,22.09,97.77,36.93,17.26,7.85,33.48,15.19,47.89,20.71,1.12,.34,2.24,.78,3.36,1.12,2.93,1.12,5.78,2.07,8.54,2.93,1.12,.43,2.33,.78,3.45,1.04,2.42,.78,4.75,1.38,6.99,1.81,1.38,.34,2.67,.6,3.97,.86,1.12,.26,2.24,.43,3.37,.6,2.33,.26,4.57,.43,6.64,.52,3.71,0,6.99-.34,9.92-1.21,2.33-.69,4.66-1.81,6.99-3.28,1.55-1.04,3.11-2.16,4.66-3.54,.95-.69,1.9-1.55,2.76-2.42,.95-.86,1.9-1.81,2.85-2.76,1.64-1.64,3.28-3.45,4.75-5.35,.86-.86,1.55-1.73,2.33-2.67,1.9-2.33,3.71-4.75,5.61-7.33,.69-.86,1.38-1.9,2.07-2.85,1.98-2.85,4.06-5.87,6.13-9.06,.69-.95,1.29-1.9,1.9-2.85,6.82-10.44,13.89-22.18,21.31-34.52,7.08-11.74,14.32-23.73,21.75-35.38v-6.3c-8.54,13.03-16.74,26.66-24.68,39.87-7.16,11.91-14.24,23.64-21.05,34.08-.6,.95-1.29,1.98-1.9,2.93-2.16,3.28-4.31,6.39-6.39,9.32-.69,1.04-1.38,1.98-2.07,2.85-1.98,2.76-3.97,5.35-5.95,7.68-.69,.95-1.47,1.81-2.24,2.68-1.81,2.16-3.62,4.14-5.44,5.87-.95,.95-1.9,1.9-2.85,2.67-1.55,1.38-3.02,2.59-4.57,3.54-1.81,1.21-3.54,2.16-5.26,2.76-.6,.34-1.12,.52-1.73,.69-1.21,.34-2.5,.6-3.88,.78-1.81,.26-3.71,.35-5.87,.17-1.98,0-4.14-.26-6.39-.52-1.21-.26-2.59-.52-3.88-.78-2.5-.52-5.18-1.21-7.85-1.98-1.12-.26-2.24-.6-3.45-1.04-2.85-.78-5.87-1.81-8.97-2.93-1.12-.43-2.24-.78-3.37-1.29-14.67-5.44-31.15-12.94-48.06-20.62-32.88-15.01-68.08-31.06-99.23-37.28-1.12-.26-2.33-.52-3.45-.69-3.8-.69-7.42-1.21-11.04-1.47-1.21-.17-2.33-.26-3.54-.34-3.62-.26-7.25-.26-10.79-.09-1.21,0-2.33,.09-3.54,.26-3.37,.17-6.64,.69-9.84,1.55-1.38,.26-2.67,.6-3.97,1.12-1.99,.43-3.88,1.12-5.7,2.07-2.16,.78-4.23,1.9-6.21,3.11-3.71,2.24-7.25,5-10.44,8.28-2.85,2.93-5.26,6.13-7.16,9.41-1.21,1.98-2.24,3.97-3.11,6.13-.86,1.98-1.64,4.06-2.16,6.13-.43,1.29-.78,2.59-.95,3.88-.78,3.19-1.21,6.56-1.38,10.01,0,1.12-.09,2.24-.09,3.45,0,3.71,.17,7.51,.69,11.39,.09,1.12,.26,2.24,.43,3.45,5.09,34.08,26.84,74.47,46.94,111.75,7.51,13.89,14.84,27.53,20.8,39.95,.43,1.04,.95,2.07,1.47,3.11,1.21,2.76,2.42,5.35,3.54,7.94,.43,1.12,.86,2.24,1.29,3.28,1.04,2.5,1.98,4.83,2.76,7.16,.43,1.21,.78,2.33,1.12,3.45,.69,2.07,1.21,4.06,1.64,5.95,.34,1.38,.6,2.67,.78,3.97,.35,1.55,.52,3.02,.6,4.49,.17,2.33,.09,4.4-.26,6.3,0,.52-.17,1.04-.26,1.47-.17,.6-.34,1.21-.6,1.81-.52,1.81-1.47,3.62-2.67,5.52-.69,1.29-1.64,2.59-2.76,3.97-.69,1.04-1.55,2.07-2.59,3.11-1.29,1.64-2.85,3.19-4.57,4.83-.86,.86-1.73,1.73-2.59,2.59-1.9,1.73-3.97,3.54-6.21,5.35-.78,.78-1.64,1.55-2.59,2.24-12.51,10.27-28.48,21.31-44.87,32.7-29.25,20.28-60.58,41.85-81.98,64.8-.86,.86-1.64,1.73-2.42,2.59-3.02,3.37-5.87,6.82-8.46,10.27-.69,.95-1.38,1.81-1.98,2.76-2.42,3.45-4.57,6.9-6.39,10.35l-1.55,3.11c-1.47,3.11-2.67,6.21-3.54,9.32-.43,1.29-.78,2.67-1.12,3.97-.34,1.64-.69,3.37-.86,5.09-.34,2.42-.43,4.92-.34,7.42,0,4.57,.78,9.23,2.33,13.98,.95,2.93,2.07,5.69,3.54,8.37,1.12,2.24,2.5,4.4,4.06,6.47,.78,1.12,1.64,2.24,2.67,3.28,.86,1.21,1.99,2.33,3.11,3.37,1.9,1.99,4.06,3.8,6.39,5.35,.95,.78,1.9,1.47,2.85,2.16,2.59,1.73,5.35,3.28,8.28,4.75,.95,.52,1.98,1.04,3.11,1.47,33.31,15.45,84.13,16.39,130.9,17.26,12.25,.26,24.25,.52,35.47,1.04,1.21,0,2.42,.09,3.54,.17,3.97,.17,7.94,.43,11.65,.69,1.21,.09,2.33,.17,3.45,.35,3.54,.34,6.9,.69,10.18,1.12,1.21,.17,2.42,.34,3.54,.6,3.11,.52,5.95,1.04,8.63,1.73,1.29,.35,2.5,.69,3.71,.95,2.33,.78,4.49,1.55,6.47,2.42,1.81,.78,3.45,1.64,4.83,2.59,1.12,.69,2.16,1.47,3.02,2.33,1.12,1.04,2.16,2.24,3.02,3.62,1.04,1.38,1.9,2.93,2.76,4.66,1.04,2.07,1.98,4.31,2.85,6.82,.35,1.21,.78,2.42,1.12,3.71,.86,2.76,1.64,5.78,2.24,9.06,.26,1.04,.52,2.16,.78,3.37,.69,3.45,1.29,7.08,1.81,10.79,.17,1.12,.35,2.24,.43,3.37,2.16,14.93,3.54,32.01,4.92,49.53,2.85,34,5.7,70.24,13.81,99.49,.34,1.21,.69,2.42,1.04,3.62,1.29,4.49,2.76,8.71,4.31,12.77,.43,1.12,.86,2.16,1.38,3.19,1.64,4.06,3.45,7.85,5.52,11.39,.6,1.04,1.21,1.98,1.73,2.93,1.98,3.11,4.14,5.95,6.3,8.54,.95,1.04,1.81,1.98,2.76,2.85,1.47,1.55,3.11,3.02,4.83,4.23,1.73,1.47,3.62,2.76,5.52,3.88h.09c3.8,2.16,7.94,3.88,12.43,4.92,3.45,.86,6.82,1.21,10.1,1.21h.34c2.24,0,4.49-.17,6.64-.6,1.98-.26,3.88-.69,5.78-1.29,1.29-.34,2.5-.78,3.71-1.21,3.02-1.12,6.04-2.5,8.97-4.23,.95-.52,1.98-1.12,2.93-1.81,3.19-1.98,6.39-4.31,9.58-6.9,.86-.78,1.73-1.47,2.68-2.24,22.61-19.93,43.49-53.15,62.9-85.6v-6.73c-20.02,33.39-41.51,68.6-64.63,89.14-.86,.86-1.73,1.55-2.59,2.33-3.28,2.68-6.56,5.09-9.84,7.16-.95,.69-1.99,1.21-2.93,1.73-3.28,1.9-6.56,3.37-9.84,4.4-1.21,.52-2.42,.86-3.62,1.12-2.93,.78-5.87,1.21-8.89,1.21-2.16,.09-4.31,0-6.47-.26-1.38-.17-2.67-.43-4.06-.78-2.33-.52-4.57-1.29-6.64-2.16-1.98-.86-3.88-1.81-5.69-3.02-2.67-1.55-5.18-3.45-7.51-5.69-.95-.78-1.81-1.73-2.67-2.67-2.59-2.67-4.92-5.78-6.99-9.15-.69-.95-1.29-1.9-1.81-2.93-2.16-3.62-4.06-7.51-5.78-11.74-.43-1.04-.86-2.07-1.29-3.19-1.55-4.14-3.02-8.46-4.31-13.03-.34-1.21-.69-2.42-.95-3.62-7.77-28.73-10.61-64.29-13.37-97.59-1.47-17.86-2.85-34.77-4.83-49.44-.17-1.21-.34-2.33-.52-3.37-.52-3.62-1.12-7.16-1.73-10.35-.26-1.21-.43-2.33-.69-3.45-.6-2.93-1.29-5.78-2.07-8.37-.34-1.29-.69-2.59-1.12-3.8-.52-1.81-1.12-3.45-1.81-5-.78-1.9-1.55-3.71-2.5-5.35h-.09c-1.55-3.19-3.45-5.87-5.69-7.94-2.07-1.9-4.57-3.62-7.59-5.09-1.55-.69-3.28-1.47-5.18-2.07-1.47-.52-3.11-1.04-4.83-1.47-1.21-.34-2.5-.69-3.8-.95-2.5-.6-5.18-1.12-7.94-1.55-1.12-.17-2.33-.34-3.54-.52-3.11-.43-6.3-.78-9.75-1.12-1.12-.09-2.24-.17-3.45-.26-3.62-.35-7.42-.6-11.39-.78-1.12-.09-2.33-.09-3.54-.17-11.13-.52-23.21-.69-35.72-.95-46.42-.86-96.99-1.81-129.52-16.91-1.04-.52-2.07-.95-3.02-1.47-3.02-1.55-5.87-3.19-8.54-5.09-.95-.6-1.98-1.29-2.85-2.07-2.5-1.9-4.83-3.97-6.9-6.21-1.04-1.04-1.98-2.16-2.93-3.37-1.55-2.07-3.02-4.23-4.31-6.47-1.12-2.16-2.16-4.49-3.02-6.9-.26-.52-.43-1.04-.6-1.64-.69-2.16-1.21-4.4-1.55-6.56-.43-2.5-.69-4.92-.69-7.33v-.09c0-2.85,.26-5.61,.86-8.46,.17-1.29,.43-2.67,.78-3.97,.86-3.45,2.16-6.9,3.71-10.27,.52-1.04,1.04-2.07,1.55-3.11,1.81-3.62,4.06-7.16,6.56-10.7,.69-.95,1.38-1.9,2.07-2.85,2.59-3.45,5.44-6.9,8.54-10.27,.86-.86,1.64-1.81,2.42-2.67,21.23-22.26,52.03-43.58,80.77-63.42,16.83-11.65,32.44-22.44,44.78-32.62,.95-.78,1.9-1.55,2.76-2.24,1.99-1.73,3.88-3.37,5.7-5.09,.95-.86,1.81-1.64,2.67-2.5,1.47-1.38,2.76-2.76,4.06-4.14,.95-1.04,1.81-2.07,2.67-3.11,.52-.6,1.04-1.21,1.38-1.81,1.55-1.9,2.76-3.71,3.71-5.44,1.47-2.5,2.5-4.92,3.02-7.25,.52-2.24,.78-4.66,.6-7.33,0-2.16-.26-4.4-.6-6.82-.17-.6-.26-1.21-.43-1.81-.26-1.29-.52-2.67-.95-4.14-.43-1.64-.95-3.37-1.55-5.09-.26-1.12-.69-2.24-1.12-3.45-.78-2.16-1.64-4.31-2.5-6.64-.43-1.04-.95-2.16-1.38-3.28-1.12-2.5-2.24-5-3.45-7.68-.43-1.04-.95-2.07-1.47-3.11-5.87-12.34-13.2-25.89-20.88-40.12-19.85-36.85-41.33-76.71-46.51-110.19-.17-1.12-.34-2.33-.43-3.45-.52-3.97-.78-7.94-.69-11.74,0-1.21,.09-2.33,.17-3.45,.17-3.71,.69-7.33,1.64-10.7Z"/><path class="f" d="M149.52,211.43c.26-3.88,.86-7.68,1.81-11.3v-.09c.35-1.29,.78-2.59,1.21-3.8,1.04-3.19,2.33-6.13,3.97-8.97,1.12-1.9,2.24-3.71,3.62-5.52,1.81-2.33,3.8-4.57,6.13-6.64,.6-.52,1.21-1.04,1.81-1.47,1.9-1.64,3.88-3.02,5.95-4.23,2.5-1.55,5.09-2.76,7.85-3.71,1.29-.52,2.67-.95,4.06-1.29,3.02-.86,6.13-1.47,9.32-1.81,1.21-.17,2.42-.26,3.62-.26,1.29-.17,2.67-.17,4.06-.17,1.98,0,3.88,.09,5.95,.26,1.12,0,2.24,.17,3.45,.34,34.6,3.62,76.97,26.32,115.8,47.29,12.34,6.64,24.16,13.03,35.12,18.38,1.12,.6,2.16,1.12,3.19,1.55,3.19,1.64,6.3,3.11,9.32,4.49,1.12,.43,2.16,.86,3.19,1.38,2.93,1.21,5.7,2.33,8.37,3.37,1.12,.43,2.16,.78,3.28,1.21,2.33,.78,4.57,1.47,6.73,2.07,1.29,.43,2.59,.69,3.88,.95,1.12,.35,2.33,.6,3.45,.69,2.16,.43,4.31,.69,6.3,.78,2.93,.17,5.69,0,8.2-.6,2.76-.69,5.52-1.9,8.37-3.71,1.73-.95,3.37-2.07,5.09-3.45,1.04-.78,1.98-1.55,3.02-2.5,.95-.78,1.9-1.73,2.93-2.67,1.73-1.64,3.54-3.45,5.26-5.44,.86-.78,1.64-1.64,2.42-2.59,1.98-2.24,4.06-4.75,6.13-7.25,.69-.86,1.38-1.73,2.07-2.67,9.58-11.99,19.67-26.66,30.46-42.28,.69-1.04,1.38-2.07,2.16-3.11v-6.13c-1.73,2.42-3.37,4.83-5,7.25-10.53,15.19-20.71,30.03-30.37,42.28-.69,.95-1.38,1.81-2.16,2.67-2.16,2.67-4.31,5.18-6.39,7.59-.86,.95-1.64,1.81-2.42,2.59-2.07,2.24-4.06,4.23-6.04,5.95-.95,.95-1.9,1.73-2.85,2.5-1.73,1.47-3.45,2.76-5.09,3.71-1.73,1.21-3.37,2.07-5,2.76-1.12,.52-2.24,.86-3.37,1.12-.86,.26-1.81,.34-2.76,.43-1.73,.17-3.62,.17-5.69,0-1.9-.09-3.8-.34-5.87-.86-1.29-.17-2.59-.52-3.97-.86-2.33-.6-4.83-1.38-7.42-2.16-1.04-.43-2.16-.78-3.28-1.29-2.85-.95-5.78-2.16-8.8-3.45-1.04-.43-2.07-.95-3.19-1.38-3.11-1.38-6.3-2.93-9.66-4.49-1.04-.52-2.07-1.04-3.19-1.55-11.04-5.44-22.87-11.82-34.86-18.29-39.09-21.14-81.63-44.01-117.01-47.72-1.21-.17-2.33-.26-3.45-.34-3.28-.26-6.56-.34-9.75-.17-1.21,0-2.42,.09-3.62,.26-2.93,.26-5.87,.69-8.63,1.38-1.38,.35-2.76,.69-4.06,1.21-1.81,.43-3.54,1.12-5.26,1.9-2.24,.95-4.4,2.07-6.47,3.45-2.59,1.55-5.09,3.45-7.51,5.61-4.06,3.71-7.42,7.85-10.01,12.25-1.21,2.07-2.33,4.14-3.19,6.3-.86,1.99-1.55,4.06-2.16,6.13-.43,1.29-.78,2.59-1.04,3.97-.78,3.36-1.29,6.9-1.55,10.53-.09,1.12-.17,2.24-.17,3.45-.17,3.97-.09,8.11,.34,12.34,.09,1.12,.17,2.24,.34,3.45,.43,4.14,1.12,8.37,2.07,12.6,.17,1.12,.43,2.33,.6,3.45h.09c6.73,30.37,22.09,64.2,36.59,95.87,8.28,18.03,16.31,35.64,21.75,50.91,.34,1.12,.78,2.16,1.12,3.19,.86,2.59,1.64,5,2.24,7.42,.43,1.21,.78,2.42,1.04,3.54,.6,2.16,1.04,4.31,1.38,6.3,.35,1.47,.52,2.85,.69,4.14,.26,1.73,.34,3.37,.34,4.83,.17,2.24,0,4.31-.34,6.21-.09,.95-.26,1.73-.52,2.59,0,.09-.09,.26-.09,.34-.6,1.81-1.47,3.71-2.76,5.61-.78,1.29-1.64,2.5-2.67,3.8-.78,.95-1.73,1.99-2.67,3.02-1.38,1.47-2.85,2.93-4.49,4.4-.86,.86-1.81,1.64-2.76,2.42-1.9,1.73-3.88,3.37-6.04,5-.95,.69-1.9,1.47-2.85,2.16-2.42,1.81-4.92,3.62-7.59,5.44-.95,.69-1.9,1.38-2.93,1.98-11.39,7.77-24.59,15.79-37.97,23.99-36.93,22.52-76.88,46.94-98.46,74.04-.78,.95-1.47,1.9-2.16,2.76-2.33,3.19-4.49,6.39-6.3,9.66-.6,1.04-1.12,2.07-1.64,3.11-1.47,2.93-2.67,5.95-3.71,8.97-.34,1.29-.78,2.59-1.04,3.97-.43,1.81-.78,3.62-.95,5.44-.34,2.33-.52,4.66-.43,7.08,.09,3.62,.6,7.25,1.55,11.05,1.04,4.06,2.5,7.85,4.49,11.3,1.12,2.24,2.5,4.31,4.06,6.3,.86,1.21,1.9,2.42,2.93,3.54,.86,1.04,1.9,2.07,2.93,3.02,2.07,1.98,4.31,3.88,6.73,5.61,1.04,.78,2.07,1.47,3.19,2.24,2.85,1.81,5.87,3.54,9.06,5.18,1.04,.43,2.07,.95,3.11,1.38,3.19,1.55,6.64,2.93,10.18,4.14,1.12,.43,2.24,.86,3.37,1.21,31.06,10.35,71.79,13.38,109.67,16.22,17.17,1.29,33.91,2.5,48.58,4.49,1.21,.17,2.42,.34,3.54,.52,3.62,.43,7.08,1.04,10.35,1.64,1.21,.26,2.33,.52,3.45,.78,3.11,.6,5.95,1.29,8.72,2.16,1.29,.26,2.5,.69,3.71,1.12,2.5,.78,4.83,1.64,6.9,2.67,1.73,.78,3.36,1.73,4.75,2.76,1.55,.86,2.85,1.99,3.97,3.19,.69,.78,1.38,1.64,2.07,2.59,.95,1.38,1.81,3.02,2.59,4.75,.95,1.98,1.81,4.14,2.5,6.47,.43,1.21,.78,2.5,1.04,3.8,.78,2.67,1.38,5.52,1.99,8.63,.17,1.12,.34,2.24,.52,3.45,.6,3.36,1.04,6.99,1.47,10.7,.09,1.12,.17,2.24,.34,3.36,.35,3.88,.6,7.94,.86,12.08,.09,1.12,.17,2.24,.26,3.37,.69,11.82,1.04,24.51,1.38,37.45,1.21,42.71,2.42,88.96,14.58,121.41,.34,1.12,.78,2.24,1.21,3.28,1.55,3.8,3.28,7.42,5.18,10.7,.52,1.04,1.12,1.99,1.73,2.93,1.81,2.93,3.8,5.69,5.95,8.2,.86,1.04,1.81,1.98,2.76,2.93,1.47,1.47,2.93,2.85,4.57,4.06,1.81,1.47,3.71,2.76,5.69,3.8,3.11,1.81,6.39,3.28,9.92,4.31,4.14,1.21,8.28,1.81,12.43,1.81h.69c2.16,0,4.4-.26,6.56-.6,1.99-.34,3.88-.78,5.87-1.38,1.29-.34,2.5-.69,3.71-1.21,3.19-1.12,6.39-2.59,9.49-4.4,1.04-.52,1.98-1.12,2.93-1.73,3.45-2.07,6.9-4.49,10.27-7.25,.95-.69,1.81-1.47,2.76-2.24,3.36-2.85,6.64-5.87,9.92-9.23,.86-.78,1.73-1.73,2.59-2.59,20.45-21.05,39.95-50.13,58.25-77.4,4.66-6.9,9.23-13.63,13.72-20.19v-6.13c-5.35,7.68-10.87,15.96-16.57,24.42-17.95,26.75-37.1,55.23-56.87,75.93-.86,.86-1.73,1.81-2.59,2.59-3.37,3.45-6.73,6.56-10.1,9.41-.95,.86-1.81,1.64-2.76,2.24-3.54,2.93-6.99,5.44-10.53,7.51-.95,.6-1.98,1.21-2.93,1.73-3.45,1.9-6.9,3.45-10.35,4.57-1.21,.43-2.42,.78-3.62,1.04-2.93,.78-5.95,1.21-8.89,1.29-2.16,.17-4.31,.09-6.47-.26-2.16-.17-4.31-.69-6.47-1.29-1.47-.43-2.85-.95-4.23-1.55-1.98-.78-3.97-1.73-5.78-2.93-2.67-1.55-5.18-3.45-7.42-5.52-.95-.86-1.9-1.81-2.67-2.76-2.5-2.59-4.75-5.52-6.73-8.72-.6-.95-1.21-1.9-1.73-2.93-1.98-3.37-3.71-7.08-5.26-10.96-.43-1.04-.86-2.16-1.29-3.28-11.56-31.76-12.86-77.49-14.07-119.68-.34-13.29-.78-26.06-1.47-37.79,0-1.12-.09-2.33-.17-3.45-.26-4.06-.52-7.94-.95-11.74,0-1.12-.17-2.33-.26-3.37-.35-3.62-.78-6.99-1.29-10.27-.17-1.21-.34-2.33-.6-3.45-.43-2.76-1.04-5.44-1.64-7.94-.34-1.38-.69-2.76-1.04-3.97-.52-1.64-1.04-3.19-1.55-4.66-.69-1.9-1.47-3.62-2.24-5.26-1.38-2.76-2.93-5.09-4.75-6.99-2.24-2.33-5.09-4.4-8.63-6.21-1.64-.86-3.45-1.64-5.44-2.33-1.47-.6-3.11-1.21-4.83-1.73-1.21-.34-2.5-.78-3.88-1.04-2.5-.78-5.18-1.38-8.02-1.9-1.12-.26-2.33-.52-3.54-.69-3.11-.6-6.47-1.12-9.92-1.64-1.12-.17-2.24-.35-3.45-.52-14.41-1.9-30.98-3.11-48.49-4.4-37.45-2.85-77.57-5.78-108.03-15.79-1.12-.34-2.24-.78-3.37-1.12-3.62-1.29-7.16-2.67-10.44-4.23-1.04-.43-2.07-.95-3.02-1.47-3.37-1.64-6.47-3.45-9.41-5.35-1.12-.69-2.16-1.47-3.19-2.24-2.67-1.99-5.09-4.14-7.25-6.39-.95-.95-1.9-1.99-2.76-3.11-1.73-2.07-3.28-4.31-4.66-6.73v-.09c-1.21-1.98-2.16-4.06-3.02-6.3-.52-1.55-1.04-3.11-1.47-4.75-.35-1.38-.6-2.68-.86-4.06-.34-2.42-.6-4.83-.6-7.16v-.09c0-2.85,.26-5.78,.86-8.54,.17-1.29,.52-2.59,.95-3.88,.86-3.37,2.16-6.64,3.71-9.92,.52-1.04,1.04-1.98,1.64-3.02,1.81-3.37,3.97-6.73,6.56-10.01,.6-.95,1.29-1.81,2.07-2.76,21.31-26.4,60.83-50.57,97.25-72.74,13.89-8.54,27.1-16.57,38.4-24.25,.95-.69,1.9-1.29,2.85-1.98,2.59-1.73,5-3.54,7.33-5.26,1.04-.69,1.98-1.47,2.85-2.16,1.99-1.55,3.88-3.02,5.7-4.57,.95-.78,1.9-1.55,2.76-2.42,1.38-1.21,2.67-2.42,3.88-3.71,1.04-.95,1.98-1.98,2.85-3.02,.52-.52,.95-1.04,1.29-1.55,1.47-1.73,2.67-3.45,3.62-5.09,1.29-2.07,2.24-4.14,2.85-6.13,.78-2.67,1.12-5.7,1.12-8.97,0-2.24-.26-4.66-.6-7.16-.09-.52-.17-1.04-.26-1.55-.17-1.38-.43-2.76-.78-4.23-.35-1.73-.86-3.54-1.29-5.35-.34-1.21-.69-2.42-1.04-3.62-.69-2.16-1.38-4.49-2.24-6.82-.34-1.04-.78-2.16-1.12-3.28-5.44-15.01-13.29-32.27-21.74-50.65-14.15-31.15-29.34-64.37-36.16-94.14-.26-1.21-.52-2.33-.69-3.54-.95-4.31-1.64-8.54-2.07-12.68-.26-1.21-.35-2.42-.35-3.54-.52-4.4-.6-8.63-.43-12.68,0-1.12,.09-2.33,.26-3.45Z"/><path class="f" d="M166.26,194.26c.43-4.14,1.21-8.11,2.33-11.91,.35-1.29,.78-2.59,1.21-3.8,1.12-3.19,2.5-6.3,4.23-9.15,1.12-2.07,2.42-3.97,3.88-5.87,2.16-2.85,4.75-5.52,7.59-7.94,.34-.26,.69-.6,1.04-.86,1.64-1.29,3.37-2.5,5.09-3.54,2.24-1.38,4.57-2.59,6.9-3.54,1.38-.52,2.76-1.04,4.14-1.38,2.76-.86,5.52-1.47,8.46-1.9,1.21-.17,2.33-.26,3.54-.34,1.55-.09,3.19-.17,4.75-.17,36.93,0,84.13,29.6,126.93,56.52,7.68,4.83,15.19,9.49,22.35,13.89,1.04,.6,2.07,1.29,3.11,1.9,3.45,2.07,6.9,4.14,10.18,6.04,1.04,.6,2.07,1.21,3.11,1.73,3.11,1.81,6.13,3.45,9.06,4.92,1.12,.6,2.07,1.12,3.11,1.55,2.67,1.38,5.26,2.59,7.68,3.71,1.12,.43,2.24,.95,3.37,1.38,2.16,.86,4.23,1.64,6.21,2.33,1.29,.43,2.59,.86,3.88,1.12,1.21,.34,2.24,.6,3.37,.86,1.98,.43,3.97,.69,5.78,.78,2.42,.26,4.75,.17,6.82-.17,3.28-.6,6.64-1.9,10.1-3.97,1.81-.95,3.62-2.16,5.44-3.54,1.04-.69,2.07-1.55,3.11-2.33,1.04-.86,2.07-1.73,3.11-2.67,1.81-1.55,3.71-3.28,5.61-5.26,.86-.78,1.73-1.64,2.5-2.5,7.25-7.33,14.84-16.31,22.87-26.15v-5.69c-9.06,11.3-17.78,21.74-26.06,30.03-.78,.86-1.64,1.73-2.5,2.42-2.16,2.24-4.23,4.14-6.3,5.87-1.04,.86-2.07,1.73-3.02,2.42-1.98,1.55-3.88,2.85-5.69,3.97-1.64,1.04-3.28,1.9-4.92,2.5-1.64,.69-3.28,1.21-4.83,1.47-.35,.09-.69,.17-1.12,.17-1.81,.17-3.71,.17-5.87-.09-1.73-.09-3.62-.43-5.52-.86-1.29-.35-2.59-.69-3.88-1.04-2.24-.69-4.49-1.55-6.9-2.5-1.12-.43-2.16-.86-3.37-1.38-2.59-1.12-5.35-2.42-8.11-3.8l-3.11-1.55v-.09c-3.02-1.55-6.21-3.28-9.41-5-.95-.6-1.98-1.21-3.02-1.73-3.45-1.98-6.9-4.06-10.53-6.21-1.04-.69-2.07-1.29-3.11-1.9-6.99-4.31-14.24-8.89-21.57-13.46-44.7-28.13-94.06-59.11-132.71-56.95-1.21,0-2.42,.09-3.62,.26-2.59,.26-5.18,.69-7.68,1.38-1.47,.34-2.85,.78-4.31,1.29-1.47,.43-2.93,1.04-4.4,1.73-2.24,.95-4.4,2.16-6.56,3.54-1.55,.95-3.11,2.07-4.57,3.28-5.44,4.4-9.66,9.32-12.94,14.93-1.29,2.07-2.42,4.31-3.37,6.64-.86,1.98-1.64,3.97-2.24,6.04-.43,1.29-.78,2.59-1.12,3.88-.86,3.54-1.47,7.16-1.9,10.96-.09,1.12-.17,2.24-.26,3.45-.35,4.23-.35,8.71-.09,13.2,0,1.12,.09,2.24,.26,3.45,.26,4.49,.78,9.06,1.55,13.72,.17,1.12,.35,2.33,.6,3.54,.78,4.31,1.64,8.63,2.76,13.12,.17,1.21,.52,2.42,.78,3.62,6.39,25.54,16.74,52.81,26.49,78.61,8.54,22.44,16.83,44.18,20.88,61.78,.34,1.21,.6,2.42,.78,3.54,.52,2.24,.86,4.4,1.12,6.47,.26,1.47,.43,2.93,.52,4.31,.17,1.73,.26,3.45,.26,5v.09c0,2.16-.17,4.23-.52,6.13-.09,.86-.26,1.64-.52,2.42-.09,.52-.26,1.04-.43,1.47-.52,1.55-1.38,3.19-2.59,4.83-.52,1.04-1.38,2.16-2.33,3.19-.78,1.04-1.73,2.07-2.76,3.11-1.29,1.29-2.76,2.67-4.31,3.97-.86,.78-1.81,1.55-2.76,2.33-1.9,1.47-3.88,3.02-6.04,4.57-.86,.6-1.81,1.29-2.85,1.98-2.42,1.55-4.92,3.19-7.59,4.92-.95,.6-1.9,1.21-2.93,1.81-2.93,1.81-6.04,3.62-9.23,5.44-1.04,.6-2.07,1.21-3.11,1.73-9.41,5.35-19.5,10.79-29.86,16.31-44.87,23.99-94.14,50.31-112.87,82.23-.6,1.04-1.21,1.98-1.73,2.93-1.47,2.85-2.67,5.78-3.62,8.72-.52,1.29-.86,2.59-1.12,3.88-.52,1.73-.78,3.45-1.04,5.18-.26,2.33-.43,4.75-.34,7.25,0,2.67,.34,5.44,.86,8.2,1.04,5.18,2.85,9.92,5.26,14.24,1.21,2.16,2.59,4.23,4.06,6.13,1.04,1.29,2.07,2.5,3.19,3.71,.95,1.04,1.99,2.07,3.02,2.93,2.16,2.16,4.57,4.06,7.16,5.87,.95,.69,1.9,1.38,2.93,2.07,3.02,1.98,6.3,3.8,9.66,5.61,1.12,.52,2.24,1.04,3.45,1.55,3.54,1.73,7.25,3.19,11.04,4.66,1.12,.43,2.24,.86,3.45,1.21,3.71,1.29,7.51,2.5,11.39,3.62,1.21,.34,2.33,.69,3.54,1.04,26.49,7.25,57.3,11.22,86.46,15.1,22.09,2.93,43.58,5.7,60.66,9.75,1.21,.26,2.42,.6,3.54,.86,3.11,.86,6.04,1.73,8.8,2.59,1.29,.43,2.5,.86,3.71,1.38,2.5,.86,4.75,1.9,6.82,2.93,1.81,.86,3.37,1.81,4.75,2.85,2.07,1.29,3.8,2.76,5.09,4.4,.34,.43,.69,.86,.95,1.38,1.12,1.47,1.98,3.11,2.85,4.92,.78,1.81,1.55,3.88,2.16,6.13,.43,1.21,.78,2.5,1.04,3.8,.6,2.59,1.12,5.35,1.55,8.28,.17,1.21,.34,2.42,.52,3.71,.34,3.11,.6,6.47,.86,10.01,.09,1.12,.17,2.24,.17,3.45,.26,3.8,.34,7.85,.43,11.99v3.37c.09,4.4,.09,8.89,0,13.46v3.45c-.09,7.94-.34,16.14-.52,24.42-1.29,51.34-2.67,107.69,15.79,140.57,.52,1.04,1.12,2.07,1.73,3.02,1.73,2.76,3.62,5.35,5.69,7.77,.86,.95,1.81,1.99,2.76,2.85,1.47,1.47,3.02,2.85,4.66,4.06,1.73,1.29,3.54,2.5,5.44,3.62,2.33,1.38,4.83,2.5,7.51,3.45,4.92,1.73,9.75,2.59,14.67,2.59,.34,0,.6,0,.95-.09,2.24,0,4.49-.17,6.73-.6,1.98-.26,3.88-.78,5.87-1.38,1.21-.26,2.5-.69,3.8-1.21,3.28-1.12,6.47-2.59,9.75-4.4,1.04-.52,1.98-1.04,3.02-1.64,3.62-2.16,7.33-4.66,10.96-7.42,.95-.69,1.81-1.38,2.76-2.16,3.62-2.85,7.25-6.04,10.87-9.41,.95-.86,1.81-1.73,2.67-2.59v-.09c3.45-3.19,6.82-6.64,10.18-10.27,.86-.95,1.73-1.9,2.59-2.85,15.96-17.43,31.41-38.05,46.25-57.64,11.74-15.53,23.13-30.55,33.65-42.63v-5.26c-11.22,12.34-23.38,28.56-36.41,45.82-14.41,19.07-29.51,39-44.87,56.09-.86,1.04-1.73,1.98-2.59,2.93-3.45,3.62-6.82,7.16-10.18,10.35-.86,.95-1.73,1.81-2.67,2.59-3.62,3.62-7.33,6.82-11.04,9.75-.86,.78-1.81,1.47-2.67,2.16-3.8,2.85-7.51,5.44-11.3,7.68-.95,.52-1.99,1.12-3.02,1.64-3.54,1.9-7.08,3.45-10.61,4.66-1.29,.34-2.59,.69-3.88,1.04-2.93,.78-5.95,1.21-8.89,1.29-2.16,.17-4.4,.09-6.64-.26-2.93-.26-5.78-.95-8.72-1.99-.69-.26-1.38-.52-1.98-.78-1.99-.86-3.88-1.73-5.7-2.85-2.59-1.55-5-3.28-7.25-5.35-.95-.86-1.9-1.81-2.76-2.76-2.42-2.5-4.49-5.18-6.39-8.2-.6-.95-1.21-1.98-1.81-3.02-18.12-31.93-16.74-88.02-15.45-139.01,.26-8.63,.43-17,.52-25.02v-3.45c.09-4.57,.09-8.97,0-13.2,.09-1.21,0-2.33,0-3.45-.09-4.06-.17-7.94-.35-11.65-.09-1.21-.17-2.33-.26-3.45-.17-3.36-.52-6.64-.86-9.75-.09-1.21-.26-2.42-.43-3.54-.34-2.76-.86-5.35-1.38-7.77-.26-1.29-.52-2.59-.95-3.8-.35-1.55-.69-2.93-1.21-4.31-.6-1.9-1.38-3.71-2.16-5.35-1.12-2.24-2.33-4.14-3.71-5.87-2.42-2.85-5.7-5.44-9.84-7.59-1.73-.95-3.54-1.81-5.52-2.59-1.47-.69-3.11-1.29-4.75-1.9-1.21-.43-2.59-.86-3.88-1.29-2.5-.78-5.18-1.47-8.02-2.16-1.12-.34-2.42-.6-3.62-.86-16.74-3.97-37.62-6.73-59.97-9.66-28.56-3.8-58.68-7.68-84.56-14.67-1.21-.35-2.42-.6-3.62-1.04-4.06-1.04-7.85-2.24-11.56-3.54-1.21-.43-2.33-.78-3.45-1.21-3.97-1.47-7.77-3.02-11.3-4.66-1.21-.52-2.33-1.04-3.36-1.64-3.62-1.73-7.08-3.71-10.18-5.78-.95-.69-1.9-1.29-2.85-1.98-2.85-2.07-5.52-4.31-7.85-6.73-.95-.95-1.9-1.9-2.67-2.93-1.9-2.16-3.54-4.49-4.92-6.9v-.09c-1.21-1.9-2.16-3.88-3.02-5.95-.95-2.5-1.73-5.09-2.24-7.77-.09-.52-.26-1.12-.26-1.64-.43-2.42-.6-4.66-.6-6.99,0-2.85,.26-5.7,.86-8.46,.26-1.29,.52-2.59,.95-3.88,.86-3.28,2.16-6.39,3.8-9.49,.43-1.04,1.04-2.07,1.64-3.11,18.03-31.24,67.05-57.38,111.66-81.2,10.7-5.78,21.05-11.3,30.46-16.65,1.04-.52,2.07-1.12,3.11-1.73,3.02-1.73,6.04-3.54,8.89-5.35,1.04-.52,2.07-1.12,3.02-1.81,2.5-1.55,4.92-3.11,7.25-4.66,.95-.69,1.9-1.29,2.85-2.07,1.99-1.29,3.88-2.67,5.61-4.14,1.04-.69,1.98-1.47,2.85-2.24,1.38-1.12,2.59-2.24,3.8-3.45,1.04-.95,2.07-1.9,2.93-2.93,.43-.34,.69-.69,1.04-1.12,1.55-1.81,2.93-3.54,3.97-5.35,.95-1.55,1.73-3.02,2.24-4.57,1.04-2.93,1.55-6.3,1.64-10.01,.09-2.59-.09-5.26-.43-8.2,0-.26,0-.6-.09-.95-.17-1.47-.43-3.02-.69-4.57-.26-1.73-.6-3.54-1.04-5.35-.26-1.21-.52-2.42-.86-3.71-4.14-17.26-12.08-38.14-20.71-60.75-9.58-25.37-19.76-52.03-26.06-77.06-.34-1.21-.6-2.42-.86-3.54-1.12-4.49-2.07-8.89-2.85-13.2-.17-1.12-.43-2.33-.6-3.54-.78-4.75-1.38-9.41-1.64-13.89-.17-1.21-.26-2.33-.26-3.54-.17-4.57-.17-9.06,.09-13.46,.09-1.21,.17-2.33,.35-3.54Z"/><path class="f" d="M183.17,176.75c.6-4.31,1.47-8.37,2.76-12.34,.35-1.38,.78-2.67,1.29-3.97,1.21-3.28,2.67-6.3,4.4-9.23,1.12-2.07,2.5-4.06,3.88-5.95,1.98-2.42,4.06-4.75,6.47-6.9,1.55-1.38,3.19-2.76,4.92-3.97,.6-.43,1.12-.78,1.73-1.12,1.99-1.38,4.14-2.5,6.21-3.45,1.38-.69,2.85-1.21,4.31-1.64,5.44-1.98,11.22-2.85,17.26-2.85,37.97,0,85.34,34.34,128.23,65.49,3.28,2.42,6.56,4.75,9.75,7.08,1.04,.69,1.98,1.38,2.93,2.07,3.71,2.67,7.42,5.35,10.96,7.85,.95,.69,1.98,1.29,2.93,1.99,3.36,2.33,6.64,4.57,9.84,6.64,.95,.69,1.9,1.29,2.85,1.9,2.93,1.9,5.87,3.71,8.63,5.35,1.04,.6,2.07,1.21,3.02,1.73,2.5,1.47,4.92,2.76,7.25,3.88,1.12,.6,2.16,1.12,3.19,1.55,1.98,.95,3.97,1.81,5.87,2.5,1.29,.52,2.59,.95,3.8,1.29,1.04,.34,1.99,.6,2.93,.86,2.07,.52,4.06,.86,5.87,.95,1.81,.17,3.45,.17,5.09,0,3.71-.43,7.59-1.81,11.74-4.06,1.98-1.04,4.06-2.24,6.13-3.71,.95-.6,1.9-1.29,2.85-1.99,1.04-.78,2.16-1.64,3.19-2.5,4.4-3.54,8.97-7.59,13.63-12.25v-4.92c-6.13,6.21-11.99,11.56-17.52,15.79-1.04,.78-2.07,1.55-3.11,2.24-2.07,1.55-4.06,2.85-6.04,3.8-1.73,1.12-3.36,1.9-5,2.5-1.99,.78-3.8,1.38-5.52,1.55-.26,.09-.52,.17-.78,.17-1.73,.17-3.62,.17-5.61-.09-1.55-.17-3.19-.52-4.92-1.04-1.29-.26-2.59-.69-3.88-1.12-2.07-.78-4.14-1.64-6.39-2.67-1.04-.43-2.16-.95-3.28-1.55-2.42-1.21-5-2.5-7.59-4.06-.95-.52-1.98-1.12-3.02-1.81-2.85-1.64-5.87-3.54-8.89-5.52-.95-.6-1.98-1.21-2.93-1.81-3.28-2.16-6.64-4.49-10.01-6.9-.95-.6-1.98-1.29-2.93-2.07-3.71-2.5-7.42-5.18-11.22-8.03-1.04-.6-1.98-1.29-2.93-2.07-2.93-2.07-5.87-4.14-8.8-6.3-49.36-35.81-104.5-75.85-145.83-64.2-1.47,.43-2.93,.86-4.4,1.47-1.12,.43-2.24,.86-3.37,1.38q-.09,0-.09,.09c-2.42,1.12-4.75,2.42-6.99,3.97-.34,.26-.78,.52-1.12,.78-6.73,4.83-11.99,10.61-15.96,17.26-1.29,2.16-2.42,4.49-3.45,6.82-.95,1.9-1.73,3.97-2.33,6.04-.52,1.29-.86,2.67-1.29,4.06-.95,3.62-1.73,7.42-2.24,11.3-.17,1.12-.34,2.24-.43,3.45-.43,4.49-.69,9.06-.69,13.81,0,1.12,0,2.24,.09,3.45,.09,4.75,.43,9.75,1.04,14.76,.09,1.12,.26,2.33,.34,3.54,.6,4.75,1.38,9.49,2.24,14.41,.17,1.21,.43,2.42,.69,3.62,.78,4.31,1.73,8.72,2.76,13.12,.26,1.12,.52,2.33,.86,3.54,4.83,20.54,11.3,41.42,17.34,60.83,8.63,28.22,16.57,53.67,18.29,72.48,.17,1.47,.34,2.85,.34,4.23,.09,1.81,.17,3.62,0,5.26-.09,2.33-.26,4.49-.69,6.47-.09,.52-.17,.95-.35,1.38-.26,1.21-.6,2.42-1.04,3.45-.52,1.21-1.12,2.33-1.98,3.54v.09c-.6,.95-1.29,1.81-2.07,2.76-.86,1.04-1.9,2.16-3.02,3.11-1.21,1.21-2.5,2.42-3.97,3.62-.86,.69-1.9,1.47-2.85,2.24-1.81,1.29-3.8,2.67-5.87,3.97-.95,.69-1.9,1.29-2.93,1.99-2.33,1.38-4.83,2.85-7.51,4.31-1.04,.6-1.98,1.21-3.11,1.73-2.93,1.64-5.95,3.19-9.15,4.83-1.04,.52-2.07,1.04-3.11,1.55-3.45,1.81-7.08,3.54-10.79,5.35l-3.37,1.55c-6.56,3.11-13.37,6.3-20.19,9.49-52.9,24.42-111.66,51.6-124.34,89.31-.52,1.29-.86,2.59-1.12,3.88-.52,1.81-.86,3.54-1.04,5.44-.34,2.24-.52,4.57-.43,6.99,.09,1.73,.26,3.54,.43,5.26,.86,6.21,2.85,11.82,5.87,17,1.12,2.07,2.5,4.06,4.06,5.95,1.04,1.38,2.24,2.67,3.45,3.97,.95,1.04,1.9,1.98,2.93,2.85,2.33,2.24,4.83,4.31,7.59,6.21,.95,.69,1.81,1.38,2.85,1.98,3.19,2.16,6.64,4.14,10.35,6.04l3.11,1.55c3.8,1.9,7.77,3.62,11.91,5.26,1.21,.43,2.42,.95,3.62,1.38,3.97,1.47,8.11,2.93,12.34,4.31,1.12,.34,2.33,.69,3.54,1.04,3.88,1.21,7.94,2.33,11.99,3.37,1.21,.34,2.42,.69,3.62,.95,20.02,5.26,41.59,9.32,62.21,13.2,27.18,5.18,53.41,10.1,71.45,17,1.29,.52,2.5,.95,3.71,1.47,2.5,1.12,4.83,2.24,6.99,3.45,1.73,.86,3.28,1.9,4.66,2.93,2.42,1.64,4.4,3.45,5.78,5.44l.17,.17c1.04,1.47,1.9,3.11,2.67,4.92,.86,1.81,1.55,3.71,2.07,5.87,.34,1.21,.69,2.5,.95,3.88,.52,2.42,.95,5.09,1.29,7.85,.17,1.12,.26,2.33,.34,3.54,.26,3.11,.52,6.39,.6,9.84v3.62c.09,3.62,.09,7.42,0,11.39,0,1.12-.09,2.33-.09,3.54-.17,4.23-.34,8.63-.6,13.12-.09,1.12-.09,2.33-.17,3.54-.35,4.83-.6,9.75-1.04,14.76-.09,1.21-.17,2.33-.17,3.45-.34,3.54-.6,7.16-.86,10.79-4.57,59.28-9.58,125.47,17.86,156.18,.86,1.04,1.81,1.98,2.76,2.93,1.38,1.38,2.85,2.59,4.49,3.8,1.73,1.38,3.71,2.59,5.69,3.62,1.55,.95,3.11,1.73,4.75,2.42,5.61,2.42,11.22,3.45,17,3.45,.35,0,.69,0,1.04-.09,2.24,0,4.49-.17,6.73-.6,2.07-.26,4.06-.78,6.13-1.29,1.29-.34,2.59-.78,3.8-1.21,3.37-1.12,6.73-2.59,10.01-4.31,1.12-.52,2.16-1.12,3.19-1.64,3.8-2.16,7.59-4.57,11.48-7.33,.95-.6,1.9-1.29,2.85-1.98,3.97-3.02,7.94-6.21,11.91-9.66,.86-.78,1.81-1.55,2.67-2.42,3.8-3.37,7.59-6.9,11.3-10.7,.95-.86,1.81-1.81,2.76-2.76,3.37-3.37,6.73-6.9,9.92-10.53,1.04-.95,1.9-1.9,2.67-2.85,11.39-12.34,22.44-25.46,33.22-38.14,17.69-21.05,34.77-41.33,49.36-53.24,1.04-.95,1.98-1.73,2.93-2.33,.43-.43,.86-.78,1.29-1.04v-4.31c-.34,.17-.6,.43-.95,.69-1.29,.86-2.59,1.9-3.97,3.02-.95,.78-1.98,1.55-3.02,2.5-14.24,12.17-30.55,31.41-48.32,52.46-10.27,12.25-20.97,24.85-31.75,36.67-.86,.95-1.73,1.98-2.59,2.93-3.37,3.62-6.73,7.16-10.01,10.53-.95,.95-1.81,1.81-2.76,2.76-3.71,3.8-7.51,7.42-11.3,10.79-.95,.86-1.9,1.73-2.76,2.5-4.06,3.54-8.02,6.82-12.08,9.75-.86,.78-1.81,1.47-2.76,2.16-3.97,2.85-7.94,5.35-11.91,7.59-1.04,.52-2.07,1.12-3.11,1.64-3.71,1.81-7.33,3.37-10.96,4.49-1.29,.43-2.59,.78-3.88,1.04-3.02,.78-6.04,1.29-9.06,1.38-2.16,.09-4.31,.09-6.47-.17-3.62-.34-7.16-1.29-10.7-2.76-.17,0-.34-.09-.52-.17-1.9-.78-3.62-1.64-5.35-2.67-2.5-1.47-4.75-3.11-6.9-5.09-1.04-.78-2.07-1.73-2.93-2.76-27.96-28.99-22.87-95.44-18.29-154.98,.26-3.97,.6-7.85,.86-11.74,.09-1.12,.17-2.24,.26-3.45,.34-4.92,.69-9.75,.95-14.5,.09-1.21,.17-2.42,.17-3.54,.26-4.4,.43-8.71,.6-12.86,0-1.21,.09-2.42,.09-3.54,.09-3.8,.17-7.59,.09-11.13,0-1.21-.09-2.42-.09-3.54-.09-3.28-.26-6.39-.52-9.41-.09-1.21-.17-2.42-.35-3.62-.26-2.5-.6-4.92-1.12-7.25-.17-1.38-.43-2.76-.78-3.97-.34-1.47-.69-2.76-1.21-4.06-.52-1.9-1.21-3.71-2.07-5.35-.69-1.64-1.64-3.11-2.59-4.49-2.42-3.37-6.13-6.39-10.79-8.97-1.81-1.12-3.8-2.16-5.95-3.11-1.38-.69-2.85-1.29-4.31-1.9-1.29-.52-2.59-1.04-3.97-1.47-17.95-6.47-42.8-11.22-69.81-16.31-20.11-3.8-40.99-7.77-60.49-12.68-1.29-.34-2.5-.6-3.71-.95-4.06-1.04-8.02-2.16-11.91-3.37-1.21-.34-2.42-.69-3.62-1.04-4.31-1.38-8.46-2.76-12.51-4.31-1.21-.43-2.42-.86-3.62-1.29-4.23-1.73-8.28-3.45-12.08-5.35-1.12-.43-2.16-1.04-3.19-1.55-3.8-1.98-7.42-4.06-10.7-6.3-1.04-.6-1.99-1.29-2.85-1.98-3.02-2.16-5.78-4.49-8.2-6.99-1.04-.86-1.98-1.9-2.85-2.93-1.9-2.24-3.62-4.57-5.09-6.99-1.21-1.98-2.24-4.06-3.11-6.21-1.21-2.93-2.07-6.04-2.59-9.32-.09-.35-.09-.6-.17-.95-.26-1.9-.43-3.88-.43-5.78,0-2.93,.26-5.78,.86-8.54,.26-1.29,.52-2.5,.95-3.8,10.79-37.19,70.07-64.54,123.14-89.14,7.25-3.36,14.32-6.64,21.14-9.84,1.12-.6,2.24-1.12,3.36-1.64,3.62-1.81,7.08-3.45,10.53-5.18,1.04-.52,2.07-1.04,3.11-1.64,3.11-1.55,6.04-3.11,8.89-4.66,1.04-.52,2.07-1.12,3.11-1.73,2.5-1.38,4.92-2.76,7.16-4.14,1.04-.6,1.99-1.29,2.93-1.9,1.9-1.21,3.71-2.42,5.44-3.71,.95-.69,1.9-1.38,2.85-2.24,1.29-.86,2.42-1.9,3.54-2.93,1.12-.95,2.24-1.99,3.11-3.02,.35-.26,.6-.52,.78-.86,1.64-1.64,2.93-3.37,3.97-5,.69-1.12,1.29-2.33,1.73-3.45,1.38-3.28,2.07-7.16,2.24-11.48,.26-2.85,.17-6.04-.09-9.32v-.17c-.09-1.47-.26-2.93-.43-4.49-2.33-18.9-9.84-43.4-18.21-70.15-5.87-18.9-12.17-39.18-17-59.19-.26-1.21-.6-2.5-.86-3.71-1.04-4.4-1.98-8.72-2.76-13.03-.26-1.21-.52-2.42-.69-3.62-.95-4.92-1.73-9.75-2.33-14.5-.17-1.12-.26-2.33-.43-3.45-.52-5.09-.95-10.18-1.04-15.01-.09-1.21-.09-2.33-.09-3.45,0-4.92,.26-9.75,.78-14.41,.09-1.12,.26-2.24,.43-3.37Z"/><path class="f" d="M197.5,177.18c.17-5.09,.6-10.1,1.38-14.84,.17-1.21,.35-2.42,.6-3.54,.78-4.4,1.81-8.54,3.19-12.51,.43-1.38,.95-2.76,1.55-4.06,1.21-3.19,2.67-6.13,4.4-8.97,1.29-2.24,2.76-4.4,4.4-6.47q0-.09,.09-.09c1.55-2.07,3.37-3.97,5.26-5.7,2.16-2.16,4.49-4.06,6.99-5.69,.6-.52,1.21-.86,1.81-1.29,8.28-5.26,17.26-7.59,26.66-7.59,38.23,0,84.39,37.79,126.41,72.74,.86,.69,1.81,1.38,2.67,2.16,.09,.09,.17,.17,.26,.17,3.97,3.37,7.94,6.64,11.74,9.75,.95,.78,1.9,1.55,2.76,2.24,3.62,3.02,7.08,5.87,10.53,8.54,.95,.78,1.81,1.47,2.76,2.16,3.11,2.5,6.21,4.83,9.23,7.08,.95,.69,1.9,1.38,2.85,2.07,2.67,1.98,5.35,3.88,7.94,5.61,1.04,.6,1.98,1.29,2.93,1.9,2.33,1.47,4.66,2.85,6.82,4.06,1.04,.6,2.07,1.21,3.11,1.64,1.81,1.04,3.62,1.81,5.35,2.5,1.29,.6,2.59,1.12,3.8,1.55,.86,.26,1.64,.52,2.42,.78,2.07,.52,3.97,.95,5.87,1.04,1.21,.17,2.33,.26,3.45,.17,4.06-.26,8.54-1.64,13.38-4.06,2.24-1.04,4.57-2.42,6.99-3.97,.69-.34,1.29-.78,1.98-1.29v-4.14c-3.37,2.33-6.64,4.4-9.66,5.87-1.81,1.04-3.54,1.81-5.26,2.42-1.64,.6-3.28,1.12-4.75,1.29-1.04,.26-1.9,.34-2.85,.43h-1.04c-1.04,0-2.07-.09-3.11-.26-1.38-.17-2.85-.52-4.31-.95-1.29-.34-2.59-.78-3.88-1.29-1.9-.78-3.88-1.64-5.95-2.67-1.04-.52-2.07-1.04-3.11-1.64-2.24-1.29-4.66-2.67-7.16-4.31-.95-.6-1.99-1.21-2.93-1.9-2.67-1.81-5.52-3.71-8.28-5.78-.95-.69-1.9-1.38-2.85-2.07-3.11-2.33-6.3-4.75-9.49-7.25-.95-.78-1.81-1.47-2.76-2.16-3.54-2.85-7.08-5.78-10.7-8.72-.95-.78-1.9-1.55-2.76-2.33-3.71-2.93-7.33-5.95-11.04-9.06-.26-.26-.6-.52-.86-.78-.95-.78-1.98-1.55-2.93-2.42-51.26-42.54-108.29-88.53-151.35-67.05-1.55,.78-3.11,1.64-4.66,2.59-.95,.6-1.81,1.21-2.67,1.9-6.99,4.83-12.43,10.87-16.65,17.78-1.55,2.42-2.85,4.92-4.06,7.59-.78,1.64-1.47,3.37-2.07,5.18-.52,1.38-.95,2.76-1.38,4.14-1.12,3.62-2.07,7.42-2.67,11.39-.26,1.12-.43,2.33-.6,3.54-.69,4.57-1.12,9.32-1.29,14.24-.09,1.12-.09,2.24-.09,3.45-.09,5.09,0,10.27,.26,15.62,.09,1.21,.17,2.33,.26,3.54,.34,5.09,.86,10.35,1.64,15.62,.09,1.12,.26,2.33,.43,3.54,.6,4.75,1.38,9.66,2.33,14.5,.17,1.21,.35,2.5,.6,3.71,.78,4.23,1.64,8.46,2.5,12.68,.26,1.21,.52,2.5,.78,3.71,3.11,14.5,6.64,28.91,10.01,42.63,8.2,33.57,15.53,63.51,14.07,82.84-.17,2.33-.43,4.49-.95,6.47v.17l-.09,.09c-.35,2.07-1.04,3.97-1.81,5.7-.34,.78-.86,1.64-1.38,2.42s-1.04,1.55-1.81,2.33c-.78,1.12-1.81,2.24-3.02,3.19-1.12,1.12-2.33,2.16-3.62,3.19-.95,.78-1.98,1.55-3.11,2.24-1.64,1.21-3.45,2.42-5.44,3.54-.95,.6-1.98,1.21-3.02,1.73-2.24,1.38-4.75,2.67-7.33,3.97-.95,.6-1.98,1.12-3.11,1.55-2.85,1.47-5.87,2.85-8.97,4.31-1.12,.43-2.16,.95-3.28,1.47-3.45,1.55-7.08,3.02-10.79,4.66-1.04,.43-2.16,.86-3.28,1.29-4.14,1.73-8.37,3.45-12.68,5.18-1.12,.43-2.33,.95-3.45,1.38-3.02,1.21-6.04,2.42-9.15,3.62-59.97,23.82-127.28,50.39-132.97,93.88-.26,2.16-.43,4.49-.43,6.73,0,.95,.09,1.81,.17,2.76,.52,7.33,2.85,13.98,6.39,20.02,1.21,1.99,2.59,3.88,4.06,5.7,1.12,1.38,2.33,2.85,3.62,4.14,.95,1.04,1.9,1.98,2.93,2.93,2.42,2.24,5.09,4.4,7.94,6.47,.95,.69,1.9,1.38,2.85,1.98,3.37,2.33,6.99,4.49,10.87,6.56,.95,.6,1.98,1.12,3.02,1.64,4.06,2.07,8.2,4.06,12.6,5.87,1.04,.52,2.16,.95,3.28,1.38,4.23,1.81,8.72,3.45,13.29,5.09l3.62,1.29c4.14,1.38,8.46,2.76,12.77,4.14,1.21,.34,2.5,.78,3.71,1.12,3.88,1.12,7.68,2.24,11.65,3.36,1.21,.35,2.5,.69,3.8,.95,12.6,3.54,25.46,6.73,38.05,9.84,32.36,8.03,63.42,15.7,80.59,25.97,1.81,1.04,3.45,2.16,4.92,3.19,2.07,1.64,3.8,3.28,5.09,5,.6,.6,1.04,1.29,1.47,1.9,.69,1.12,1.38,2.33,1.9,3.71,.78,1.55,1.38,3.28,1.81,5.18,.43,1.29,.69,2.59,.95,3.97,.52,2.33,.86,4.92,1.04,7.59,.17,1.12,.26,2.33,.34,3.54,.17,2.93,.26,6.13,.26,9.41,0,1.12,0,2.24-.09,3.45,0,3.54-.17,7.25-.43,11.13-.09,1.12-.17,2.33-.26,3.54-.26,4.14-.6,8.37-1.12,12.77-.09,1.12-.17,2.33-.34,3.45-.43,4.66-1.04,9.49-1.64,14.41-.09,1.21-.26,2.42-.35,3.62-.69,5.18-1.38,10.53-2.07,15.88v.26c-.17,1.12-.26,2.24-.43,3.36-8.28,64.98-16.74,137.2,20.02,164.38,1.81,1.38,3.8,2.59,5.87,3.71,.69,.43,1.38,.78,2.07,1.12,6.3,3.11,12.77,4.49,19.33,4.49,.52,0,.95,0,1.47-.09,2.24,0,4.4-.26,6.64-.6,2.07-.35,4.06-.78,6.04-1.29,1.29-.34,2.59-.69,3.88-1.12,3.37-1.12,6.82-2.59,10.35-4.23l3.11-1.55c4.06-2.07,8.11-4.49,12.17-7.16,.95-.6,1.9-1.29,2.85-1.98,4.23-2.85,8.46-5.95,12.68-9.41,.95-.78,1.9-1.55,2.85-2.33,4.14-3.36,8.28-6.99,12.43-10.79,.95-.86,1.9-1.64,2.76-2.59,3.8-3.45,7.59-7.08,11.3-10.79,.95-.95,1.9-1.9,2.85-2.76,3.28-3.28,6.56-6.64,9.84-10.01,.86-.95,1.81-1.9,2.67-2.85,6.47-6.64,12.68-13.29,18.9-19.93,22.69-24.07,44.35-47.03,61.01-56.26,1.64-1.04,3.19-1.81,4.66-2.33,2.5-1.12,4.92-1.81,7.08-1.9,.34-.09,.6-.17,.95-.17v-3.45c-4.14,.17-8.63,1.64-13.46,4.31-1.81,.95-3.71,2.07-5.7,3.37-16.14,10.7-35.55,31.32-57.04,54.1-5.78,6.13-11.65,12.34-17.52,18.55-.95,.95-1.9,1.9-2.76,2.85-3.19,3.28-6.39,6.56-9.66,9.84-.95,.95-1.9,1.9-2.85,2.85-3.8,3.71-7.51,7.33-11.3,10.87-.95,.86-1.81,1.73-2.76,2.59-4.14,3.8-8.37,7.51-12.51,10.96-.95,.78-1.9,1.64-2.85,2.33-4.31,3.54-8.54,6.82-12.86,9.75-.95,.69-1.98,1.38-2.93,1.98-4.23,2.85-8.37,5.35-12.51,7.42-1.04,.6-2.07,1.12-3.11,1.55-3.8,1.81-7.59,3.28-11.39,4.4-1.29,.43-2.59,.78-3.88,1.04-3.11,.78-6.13,1.21-9.15,1.29-2.16,.17-4.4,.09-6.47-.17-3.62-.34-7.16-1.21-10.61-2.59-.95-.34-1.99-.78-2.93-1.21-1.04-.52-2.07-1.04-3.02-1.73-40.47-23.56-31.41-98.28-22.95-165.16,.09-.78,.17-1.47,.26-2.24,.09-.43,.09-.95,.17-1.38,.69-5.35,1.38-10.61,1.98-15.7,.17-1.21,.34-2.42,.43-3.62,.6-4.83,1.12-9.58,1.64-14.15,.09-1.21,.26-2.33,.34-3.45,.43-4.31,.78-8.46,1.04-12.51,.17-1.21,.17-2.42,.26-3.54,.26-3.71,.43-7.33,.43-10.79,.09-1.21,.09-2.42,.09-3.54,0-3.11-.09-6.04-.26-8.89,0-1.21-.09-2.42-.26-3.62-.17-2.42-.43-4.75-.86-6.9-.17-1.38-.52-2.76-.78-4.06-.26-1.21-.6-2.42-1.04-3.54-.52-1.98-1.21-3.8-2.07-5.44-.43-1.12-1.04-2.16-1.64-3.11-2.5-3.88-6.39-7.42-11.56-10.53-1.98-1.29-4.23-2.5-6.56-3.62-17.95-8.97-45.56-15.79-75.93-23.38-11.99-2.93-24.33-6.04-36.41-9.32-1.21-.34-2.5-.69-3.8-1.04-3.88-1.04-7.77-2.16-11.56-3.28-1.21-.34-2.5-.78-3.71-1.21-4.31-1.21-8.63-2.59-12.77-4.06-1.29-.35-2.5-.78-3.71-1.21-4.57-1.64-9.06-3.28-13.38-5.09-1.21-.43-2.33-.86-3.36-1.38-4.57-1.81-8.8-3.8-12.86-5.95-1.04-.43-2.07-1.04-3.11-1.55-3.97-2.16-7.77-4.4-11.22-6.82-1.04-.6-1.98-1.29-2.85-2.07-3.19-2.24-6.04-4.66-8.63-7.25-1.04-.95-1.9-1.9-2.76-2.93-2.07-2.24-3.8-4.57-5.35-6.99-1.21-1.9-2.24-3.88-3.02-5.95-1.47-3.19-2.42-6.47-2.93-10.01-.26-1.04-.34-2.16-.43-3.28s-.09-2.16-.09-3.28v-.09c.09-44.61,69.55-72.14,131.07-96.56,3.54-1.38,7.08-2.76,10.53-4.14,1.12-.52,2.33-.95,3.45-1.38,4.23-1.73,8.28-3.36,12.25-5,1.12-.43,2.24-.95,3.36-1.38,3.62-1.55,7.16-3.02,10.53-4.57,1.04-.43,2.16-.95,3.19-1.47,3.11-1.29,6.04-2.76,8.8-4.06,1.12-.6,2.07-1.12,3.11-1.55,2.42-1.21,4.75-2.5,6.9-3.8,1.12-.52,2.07-1.12,3.11-1.73,1.81-1.04,3.45-2.16,5.09-3.28,1.04-.69,2.07-1.38,3.11-2.16,1.12-.86,2.16-1.64,3.11-2.5,1.12-.95,2.24-1.99,3.19-2.93l.43-.43c1.64-1.73,3.11-3.54,4.06-5.35,.52-.69,.86-1.38,1.21-2.07,1.73-3.62,2.67-8.11,3.11-13.12,.26-3.37,.26-6.9,.09-10.7-.86-19.5-7.25-45.39-14.24-73.78-3.28-13.2-6.64-27.1-9.66-41.16-.26-1.21-.52-2.5-.78-3.71-.86-4.23-1.73-8.37-2.5-12.6-.26-1.21-.43-2.5-.69-3.71-.86-4.83-1.64-9.75-2.24-14.5-.26-1.21-.43-2.42-.52-3.54-.69-5.35-1.29-10.53-1.64-15.7-.17-1.21-.17-2.33-.26-3.54-.43-5.35-.52-10.7-.34-15.88,0-1.12,0-2.33,.09-3.45Z"/><path class="f" d="M212.69,159.31c.43-5.26,1.12-10.35,1.98-15.27,.26-1.12,.52-2.33,.86-3.45,.95-4.31,2.16-8.54,3.62-12.43,.52-1.47,1.12-2.93,1.73-4.31,1.29-3.02,2.76-5.87,4.49-8.54,1.29-2.42,2.85-4.66,4.66-6.82,4.66-5.95,10.44-10.96,17.52-14.93,40.3-22.52,93.45,22,139.19,64.63,.95,.95,1.81,1.81,2.76,2.67,3.97,3.71,7.85,7.42,11.74,11.05,.26,.26,.43,.43,.69,.69,.95,.86,1.9,1.73,2.76,2.5,3.8,3.62,7.51,7.16,11.13,10.44,.86,.86,1.73,1.73,2.59,2.5,3.37,3.11,6.64,6.13,9.84,8.97,.95,.86,1.81,1.64,2.67,2.33,2.93,2.67,5.78,5.09,8.54,7.42,.95,.78,1.81,1.47,2.67,2.16,2.5,2.07,5,3.97,7.42,5.78,.95,.69,1.9,1.38,2.85,1.98,2.07,1.55,4.14,2.93,6.13,4.06,1.12,.78,2.16,1.38,3.19,1.9,1.64,1.04,3.19,1.81,4.75,2.42,1.29,.69,2.59,1.21,3.8,1.64,.69,.26,1.29,.52,1.9,.69,2.07,.6,4.06,1.04,5.95,1.12,.6,.17,1.21,.17,1.81,.17h.09c2.24,0,4.57-.35,7.08-1.04v-3.54c-.69,.26-1.38,.34-1.98,.43-1.81,.52-3.45,.69-5.09,.69h-.09c-.78,0-1.64-.09-2.5-.26-1.29-.09-2.59-.35-3.97-.78-1.21-.34-2.5-.86-3.88-1.38-1.73-.78-3.54-1.64-5.35-2.68-1.04-.52-2.16-1.21-3.19-1.81-2.16-1.29-4.31-2.76-6.56-4.31-.86-.6-1.81-1.29-2.76-1.98-2.42-1.9-5-3.88-7.68-5.95-.86-.78-1.73-1.47-2.67-2.24-2.85-2.42-5.78-4.92-8.8-7.59-.86-.78-1.73-1.55-2.67-2.33-3.28-2.93-6.56-6.04-9.92-9.15-.86-.78-1.73-1.64-2.67-2.5-3.71-3.45-7.51-6.99-11.3-10.61-.78-.78-1.55-1.47-2.33-2.24-.09-.09-.26-.17-.35-.35-4.14-3.88-8.37-7.94-12.68-11.91-.95-.86-1.81-1.73-2.76-2.59-46.25-43.14-100.01-87.41-141.95-64.03-10.01,5.61-17.69,13.2-23.21,22.44-1.64,2.5-3.11,5.26-4.31,8.02-.69,1.47-1.29,2.85-1.9,4.31-.6,1.47-1.12,2.93-1.64,4.49-1.12,3.54-2.16,7.25-2.93,11.05-.34,1.12-.52,2.33-.78,3.54-.86,4.66-1.55,9.58-1.9,14.58-.17,1.12-.26,2.24-.34,3.45-.35,5.26-.43,10.7-.35,16.22-.09,1.12-.09,2.33,.09,3.54,0,5.44,.35,11.04,.86,16.65,0,1.21,.09,2.42,.17,3.62,.43,5.26,1.04,10.53,1.73,15.79,.09,1.29,.26,2.5,.43,3.71,.6,4.75,1.29,9.41,2.07,14.15,.09,1.21,.35,2.42,.52,3.62,.6,4.06,1.29,8.11,1.99,12.17,.26,1.21,.43,2.42,.6,3.62,1.47,8.37,3.02,16.57,4.49,24.59,6.82,36.85,12.77,69.29,8.8,88.62-.6,3.37-1.55,6.21-2.85,8.72-.17,.43-.43,.78-.69,1.21-.43,.69-.86,1.29-1.38,1.98-.95,1.12-1.98,2.24-3.19,3.37-.95,.95-2.07,1.9-3.37,2.76-.95,.78-1.98,1.47-3.02,2.24-1.55,1.04-3.28,2.07-5.09,3.11-1.04,.52-2.07,1.12-3.11,1.73-2.16,1.12-4.57,2.24-6.99,3.37-1.04,.52-2.07,.95-3.11,1.47-2.85,1.21-5.7,2.42-8.8,3.62-1.04,.43-2.16,.86-3.28,1.29-3.45,1.38-6.99,2.67-10.61,4.06-1.12,.34-2.24,.78-3.37,1.21-4.06,1.38-8.28,2.85-12.6,4.31-1.12,.43-2.33,.78-3.54,1.21-4.75,1.55-9.58,3.19-14.5,4.83-.17,.09-.34,.09-.52,.17-1.04,.34-2.07,.69-3.11,1.04C72.47,442,.5,466.68,.5,514.57v.69c.09,8.2,2.42,15.7,6.56,22.52,1.21,1.98,2.5,3.97,4.06,5.78,1.21,1.55,2.5,3.11,3.97,4.57,.86,.95,1.81,1.9,2.85,2.85,2.42,2.42,5.18,4.66,8.11,6.82,.95,.78,1.9,1.47,2.93,2.16,3.45,2.5,7.16,4.83,11.13,7.08,1.04,.6,2.07,1.12,3.11,1.73,4.14,2.33,8.54,4.49,13.12,6.56,1.04,.6,2.07,1.04,3.19,1.55,4.49,1.98,9.15,3.97,13.89,5.87,1.21,.43,2.33,.95,3.54,1.38,4.4,1.73,8.89,3.36,13.55,4.92,1.21,.52,2.42,.95,3.71,1.38,4.14,1.38,8.28,2.85,12.51,4.14,1.21,.43,2.42,.86,3.62,1.21,3.62,1.21,7.33,2.42,10.96,3.54,1.21,.35,2.42,.78,3.62,1.12,5,1.55,10.01,3.11,15.01,4.66,38.92,11.99,75.85,23.38,88.53,37.97,1.12,1.21,2.07,2.5,2.76,3.8,.35,.69,.78,1.38,1.04,2.16,.69,1.47,1.29,3.11,1.73,4.83,.35,1.29,.69,2.59,.95,4.06,.43,2.16,.69,4.57,.86,7.08,.09,1.12,.17,2.33,.26,3.54,.09,2.85,.09,5.78,0,8.89,0,1.12-.09,2.33-.17,3.54-.09,3.37-.35,6.9-.78,10.61-.09,1.21-.17,2.33-.34,3.54-.35,3.97-.86,8.11-1.47,12.34-.17,1.12-.34,2.24-.52,3.45-.69,4.49-1.38,9.23-2.16,13.98-.17,1.12-.43,2.33-.6,3.54-.86,5.09-1.81,10.27-2.68,15.53-.26,1.21-.43,2.42-.69,3.62-.17,1.04-.35,1.98-.52,3.02-.86,4.66-1.64,9.32-2.5,14.07-.17,1.21-.43,2.42-.6,3.62-11.3,65.67-19.76,134.96,22.78,158.6,7.42,4.14,15.19,5.78,23.38,5.61,2.16-.09,4.31-.35,6.56-.69,2.07-.26,4.06-.69,6.13-1.21,1.38-.34,2.67-.69,4.06-1.12,3.45-1.04,6.9-2.33,10.35-3.97,1.04-.43,2.16-.95,3.19-1.47,4.14-1.98,8.37-4.23,12.6-6.9,.95-.52,1.99-1.12,3.02-1.81,4.4-2.85,8.97-5.95,13.46-9.23,.95-.78,1.98-1.47,2.93-2.24,4.49-3.37,8.97-6.9,13.38-10.61,.95-.86,1.9-1.64,2.85-2.42,4.23-3.54,8.37-7.25,12.6-11.05,.95-.78,1.98-1.73,2.93-2.67,3.71-3.28,7.42-6.73,11.13-10.18,1.04-.95,1.98-1.81,2.93-2.76,3.19-2.93,6.3-5.95,9.41-8.97,.95-.78,1.9-1.73,2.85-2.59,1.29-1.21,2.5-2.42,3.8-3.62,29.25-27.96,56.95-54.36,74.55-56.78,.86-.17,1.73-.26,2.59-.26,.17,0,.34,0,.52,.09,1.12,0,2.24,.17,3.36,.35,1.55,.26,3.11,.69,4.75,1.29,1.21,.34,2.42,.86,3.71,1.47,1.38,.52,2.76,1.21,4.23,1.99v-3.71c-.43-.26-.86-.43-1.29-.6-1.21-.69-2.42-1.21-3.62-1.64-1.04-.43-2.07-.86-3.11-1.12-1.9-.6-3.71-1.04-5.44-1.21-.86-.17-1.73-.26-2.5-.26-.17,0-.34-.09-.52-.09-18.9,0-47.03,26.92-79.65,57.99-.86,.78-1.64,1.55-2.5,2.42-.86,.86-1.81,1.73-2.76,2.59-3.11,2.93-6.21,5.95-9.41,8.89-.95,.95-1.9,1.81-2.85,2.76-3.62,3.37-7.33,6.82-11.05,10.18-.95,.86-1.9,1.73-2.93,2.59-4.23,3.8-8.37,7.51-12.6,11.13-.95,.78-1.9,1.55-2.85,2.42-4.49,3.71-8.97,7.33-13.46,10.79-1.04,.78-1.98,1.55-3.02,2.24-4.57,3.45-9.15,6.64-13.72,9.58-.95,.6-1.98,1.21-2.93,1.81-4.49,2.76-8.89,5.18-13.2,7.16-1.04,.52-2.07,1.04-3.11,1.47-3.97,1.73-7.77,3.11-11.56,4.23-1.29,.35-2.67,.69-3.88,.95-3.19,.69-6.3,1.12-9.32,1.21-2.16,.17-4.31,.09-6.47-.09-5.52-.52-10.87-2.07-15.88-4.92-40.64-22.69-32.01-91.29-20.71-156.27,.17-1.21,.34-2.42,.6-3.62,.69-4.23,1.47-8.54,2.24-12.77,.26-1.38,.52-2.76,.78-4.14,.17-1.21,.34-2.42,.6-3.62,.95-5.18,1.81-10.27,2.67-15.27,.17-1.21,.34-2.33,.52-3.54,.78-4.75,1.55-9.32,2.16-13.81,.17-1.12,.34-2.33,.52-3.45,.6-4.14,1.12-8.2,1.47-12.08,.17-1.21,.26-2.42,.35-3.54,.43-3.54,.69-6.99,.78-10.27,.09-1.21,.17-2.33,.09-3.54,.17-3.02,.17-5.87,.09-8.54,0-1.21-.09-2.42-.17-3.54-.17-2.24-.34-4.4-.78-6.47-.17-1.38-.43-2.76-.69-4.06-.26-1.12-.52-2.16-.78-3.11-.6-1.98-1.38-3.88-2.16-5.52-.26-.52-.52-1.04-.78-1.47-9.92-17.78-48.58-29.68-93.28-43.4-4.49-1.38-8.97-2.76-13.55-4.14-1.21-.43-2.42-.78-3.62-1.12-3.62-1.21-7.25-2.33-10.87-3.45-1.21-.43-2.42-.78-3.62-1.21-4.14-1.38-8.28-2.76-12.43-4.23-1.21-.34-2.5-.78-3.71-1.21-4.57-1.64-9.15-3.28-13.63-5-1.21-.43-2.42-.95-3.54-1.38-4.83-1.9-9.58-3.88-14.07-5.87-1.12-.52-2.16-.95-3.19-1.47-3.45-1.55-6.82-3.19-10.1-4.92l-3.37-1.81c-1.04-.52-2.07-1.12-3.02-1.73-4.14-2.33-8.02-4.83-11.65-7.42-1.04-.6-1.98-1.29-2.85-1.98-3.28-2.5-6.21-5-8.89-7.68-.95-.95-1.9-1.9-2.67-2.93-2.16-2.33-3.97-4.75-5.61-7.25v-.09c-1.21-1.9-2.33-3.88-3.11-5.87-2.24-4.92-3.45-10.18-3.54-15.79-.6-46.25,71.53-70.58,135.91-92.07,.52-.17,1.04-.34,1.55-.52,.69-.26,1.29-.43,1.98-.69,4.83-1.55,9.66-3.19,14.32-4.75,1.21-.43,2.33-.78,3.54-1.21,4.23-1.47,8.28-2.85,12.25-4.23,1.12-.43,2.24-.86,3.37-1.21,3.62-1.38,7.08-2.67,10.35-3.97,1.12-.43,2.24-.86,3.28-1.29,2.93-1.21,5.78-2.33,8.46-3.54,1.04-.43,2.07-.95,3.11-1.47,2.33-1.04,4.57-2.07,6.64-3.28,1.04-.52,2.07-1.04,3.11-1.64,1.64-.86,3.28-1.81,4.75-2.85,1.12-.69,2.16-1.38,3.11-2.07,1.04-.78,1.98-1.47,2.85-2.24,1.12-.86,2.24-1.9,3.19-2.85l.09-.09c1.9-1.9,3.37-3.88,4.4-5.87,.17-.09,.17-.26,.26-.34,9.41-18.12,2.5-55.92-5.61-99.58-1.38-7.59-2.85-15.45-4.23-23.38-.26-1.21-.43-2.42-.6-3.62-.69-3.97-1.38-7.94-2.07-11.99-.17-1.21-.34-2.42-.52-3.71-.78-4.66-1.47-9.32-1.98-13.98-.26-1.21-.43-2.5-.52-3.71-.69-5.35-1.29-10.61-1.73-15.88-.09-1.21-.26-2.42-.35-3.62-.43-5.7-.69-11.22-.78-16.74-.09-1.21-.17-2.42-.09-3.54-.17-5.69,0-11.22,.34-16.57,.09-1.21,.17-2.33,.35-3.45Z"/><text class="d" transform="translate(579.01 255.79)"><tspan x="0" y="0">O</tspan></text><text class="d" transform="translate(591.92 471.23)"><tspan x="0" y="0">F</tspan></text><text class="d" transform="translate(577.33 680.26)"><tspan x="0" y="0">G</tspan></text><text class="d" transform="translate(596.75 898.86)"><tspan x="0" y="0">M</tspan></text><line class="e" x1="505.37" y1="0" x2="505.37" y2="1023.15"/><line class="c" x1="543.52" x2="543.52" y2="1023.15"/></g></svg>